<?xml version="1.0" encoding="utf-8"?>
<!-- Generator: Adobe Illustrator 22.1.0, SVG Export Plug-In . SVG Version: 6.00 Build 0)  -->
<svg version="1.1" id="Слой_1" xmlns="http://www.w3.org/2000/svg" xmlns:xlink="http://www.w3.org/1999/xlink" x="0px" y="0px"
	 viewBox="0 0 500 500" style="enable-background:new 0 0 500 500;" xml:space="preserve">
<style type="text/css">
	.st0{fill:#DD606B;}
	.st1{opacity:0.2;fill:#DD606B;}
	.st2{fill:url(#SVGID_1_);}
	.st3{fill:url(#SVGID_2_);}
	.st4{fill:url(#SVGID_3_);}
	.st5{fill:url(#SVGID_4_);}
	.st6{fill:url(#SVGID_5_);}
	.st7{fill:url(#SVGID_6_);}
	.st8{fill:url(#SVGID_7_);}
	.st9{fill:url(#SVGID_8_);}
	.st10{fill:url(#SVGID_9_);}
	.st11{fill:url(#SVGID_10_);}
	.st12{fill:url(#SVGID_11_);}
	.st13{fill:url(#SVGID_12_);}
	.st14{fill:url(#SVGID_13_);}
	.st15{fill:url(#SVGID_14_);}
	.st16{fill:url(#SVGID_15_);}
	.st17{fill:url(#SVGID_16_);}
	.st18{fill:url(#SVGID_17_);}
	.st19{fill:url(#SVGID_18_);}
	.st20{fill:url(#SVGID_19_);}
	.st21{fill:url(#SVGID_20_);}
	.st22{fill:url(#SVGID_21_);}
	.st23{fill:url(#SVGID_22_);}
	.st24{fill:url(#SVGID_23_);}
	.st25{fill:url(#SVGID_24_);}
	.st26{fill:url(#SVGID_25_);}
	.st27{fill:url(#SVGID_26_);}
	.st28{fill:url(#SVGID_27_);}
	.st29{fill:url(#SVGID_28_);}
	.st30{fill:url(#SVGID_29_);}
	.st31{fill:url(#SVGID_30_);}
	.st32{fill:url(#SVGID_31_);}
	.st33{fill:url(#SVGID_32_);}
	.st34{fill:url(#SVGID_33_);}
	.st35{fill:url(#SVGID_34_);}
	.st36{fill:url(#SVGID_35_);}
	.st37{fill:url(#SVGID_36_);}
	.st38{fill:url(#SVGID_37_);}
	.st39{fill:url(#SVGID_38_);}
	.st40{fill:url(#SVGID_39_);}
	.st41{fill:url(#SVGID_40_);}
	.st42{fill:url(#SVGID_41_);}
	.st43{fill:url(#SVGID_42_);}
	.st44{fill:url(#SVGID_43_);}
	.st45{fill:url(#SVGID_44_);}
	.st46{fill:url(#SVGID_45_);}
	.st47{fill:url(#SVGID_46_);}
	.st48{fill:url(#SVGID_47_);}
	.st49{fill:url(#SVGID_48_);}
	.st50{fill:url(#SVGID_49_);}
	.st51{fill:url(#SVGID_50_);}
	.st52{fill:url(#SVGID_51_);}
	.st53{fill:url(#SVGID_52_);}
	.st54{fill:url(#SVGID_53_);}
	.st55{fill:url(#SVGID_54_);}
	.st56{fill:url(#SVGID_55_);}
	.st57{fill:url(#SVGID_56_);}
	.st58{fill:url(#SVGID_57_);}
	.st59{fill:url(#SVGID_58_);}
	.st60{fill:url(#SVGID_59_);}
	.st61{fill:url(#SVGID_60_);}
	.st62{fill:url(#SVGID_61_);}
	.st63{fill:url(#SVGID_62_);}
	.st64{fill:url(#SVGID_63_);}
	.st65{fill:url(#SVGID_64_);}
	.st66{opacity:0.3;fill:#DD606B;}
</style>
<g>
	<g>
		<g>
			<g>
				<path class="st0" d="M387.4,275.9c-0.6-1.7-1.1-2.8-1.6-3.8c-0.5-1-0.9-1.9-1.4-3.2c-0.7-2.2-1.7-4.9-3.8-7
					c-3-3-7.2-3.5-11.3-3.8c-1.9-0.1-3.6-0.2-5.3-0.2h-1.3c-2.2,0-4.4,0.1-6.6,0.2c-0.4,0-0.7,0-1,0.1
					c-20.4,1.9-25.1,20.9-28.2,37.9c-3.8,21-10.9,42.6-22.7,60.4c-8.9,13.4-22.4,26.7-39.6,26.7c-38,0-55.5-53.8-61.4-83.2
					c-2-9.8-2.1-21.1-8.1-29.6c-4.9-6.9-12.6-11.5-21-12.3c-0.3,0-0.7-0.1-1-0.1c-2.2-0.1-4.4-0.2-6.6-0.2h-1.3
					c-1.7,0-3.4,0.1-5.3,0.2c-4.1,0.3-8.3,0.8-11.3,3.8c-2.1,2.1-3,4.8-3.8,7c-0.5,1.4-0.9,2.3-1.4,3.2c-0.5,1.1-1.1,2.1-1.6,3.8
					c-0.6,1.6-0.9,5.3-0.9,6.5c0,1.7,0.4,3.4,1.3,5.4c0.8,1.8,1.6,3.5,3,4.9c1.5,1.6,3.5,2.8,5.9,3.5c-0.8,0.6-1.5,1.2-2,2
					c-2.9,3.8-2.7,8.6-2.5,13.1c0.1,1.7,0.1,3.5,0,5.1c0,0.5-0.1,1.1-0.2,1.8c-0.3,2-0.7,4.6,0.1,6.8c1.8,4.8,6.9,7,11,7.5
					c0,0,0.1,0,0.1,0c-2.3,2.7-3.8,5.9-4.3,9.2c-0.4,2.8,0,5.7,1.1,8.3c0.5,1.4,1.2,2.4,2,3.1c0,0,0.2,0.2,0.2,0.2
					c0.7,0.6,1.1,1.6,1.1,2.6c0,2.5,0.3,5.4,2.4,8.5c1.8,2.6,4.7,4.5,8.1,5.1c-1.5,1.7-2.6,3.6-3.2,5.6c-0.9,3.1-0.7,6.5,0.5,9.5
					c1.2,3,3.6,5.5,6.4,7c2.1,1.1,4.5,1.7,7,1.7c-1.4,2.3-2.2,5.1-2,7.8c0.1,3.1,1.3,6,3.3,8.3c2.6,3,6.8,4.9,11.1,4.9
					c0.3,0,0.7,0,1,0c-0.3,0.7-0.6,1.5-0.9,2.3c-1.2,4-0.5,8.2,1.8,11.8c2.8,4.3,7.9,7.4,13.2,8.1c0.7,0.1,1.4,0.1,2.1,0.1
					c0.3,0,0.6,0,0.9,0c0.7,3.6,4.4,6.1,6.7,7.7l0.2,0.1c1.6,1.1,3.2,2,4.7,2.8c0.1,0,0.1,0.1,0.2,0.1c1.4,0.6,3.3,1.4,5.4,2
					c2.6,0.8,4.8,1.2,6.9,1.2c0.1,0,0.2,0,0.4,0c0.2,0,0.5,0,0.7-0.1c2,2.8,5.9,4.1,8.6,4.9l0.3,0.1c2,0.7,3.9,1.2,5.7,1.5
					c0.1,0,0.2,0,0.2,0c1.7,0.2,3.9,0.4,6.2,0.4l0.3,0c2.9,0,5.3-0.3,7.5-1c0.4-0.1,0.9-0.3,1.2-0.5c0.4,0.2,0.8,0.4,1.2,0.5
					c2.1,0.7,4.6,1,7.5,1l0.3,0c2.3,0,4.5-0.2,6.2-0.4c0.1,0,0.2,0,0.2,0c1.8-0.3,3.6-0.8,5.7-1.5l0.3-0.1c2.7-0.9,6.6-2.1,8.6-4.9
					c0.2,0,0.5,0,0.7,0.1c0.1,0,0.2,0,0.4,0c2.1,0,4.4-0.4,6.9-1.2c2.1-0.6,4-1.4,5.4-2c0.1,0,0.1-0.1,0.2-0.1
					c1.5-0.8,3-1.7,4.7-2.8l0.2-0.1c2.4-1.6,6-4.1,6.7-7.7c0.3,0,0.6,0,0.9,0c0.7,0,1.4,0,2.1-0.1c5.3-0.7,10.3-3.8,13.2-8.1
					c2.3-3.6,3-7.8,1.8-11.8c-0.2-0.8-0.5-1.5-0.9-2.3c0.3,0,0.7,0,1,0c4.3,0,8.5-1.8,11.1-4.9c2-2.3,3.2-5.3,3.3-8.3
					c0.1-2.7-0.6-5.5-2-7.8c2.5,0,4.9-0.6,7-1.7c2.8-1.5,5.2-4.1,6.4-7c1.2-3,1.4-6.4,0.5-9.5c-0.6-2-1.7-3.9-3.2-5.6
					c3.3-0.7,6.2-2.5,8.1-5.1c2.1-3.1,2.4-6,2.4-8.5c0-1,0.4-2,1.1-2.6c0,0,0.2-0.1,0.2-0.2c0.8-0.8,1.5-1.8,2-3.1
					c1.1-2.6,1.4-5.5,1.1-8.3c-0.4-3.4-2-6.6-4.3-9.2c0,0,0.1,0,0.1,0c4.1-0.5,9.2-2.7,11-7.5c0.8-2.2,0.4-4.7,0.1-6.8
					c-0.1-0.6-0.2-1.3-0.2-1.8c-0.1-1.6-0.1-3.4,0-5.1c0.2-4.6,0.4-9.3-2.5-13.1c-0.6-0.8-1.3-1.4-2-2c2.4-0.7,4.4-1.9,5.9-3.5
					c1.4-1.5,2.2-3.2,3-4.9c0.9-2,1.3-3.7,1.3-5.4C388.3,281.2,387.9,277.5,387.4,275.9z"/>
				<path class="st1" d="M142.2,287.8c0.8,1.8,1.6,3.5,3,4.9c1.5,1.6,3.5,2.8,5.9,3.5c-0.8,0.6-1.5,1.2-2,2
					c-2.9,3.8-2.7,8.6-2.5,13.1c0.1,1.7,0.1,3.5,0,5.1c0,0.5-0.1,1.1-0.2,1.8c-0.3,2-0.7,4.6,0.1,6.8c1.8,4.8,6.9,7,11,7.5
					c0,0,0.1,0,0.1,0c-2.3,2.7-3.8,5.9-4.3,9.2c-0.4,2.8,0,5.7,1.1,8.3c0.5,1.4,1.2,2.4,2,3.1c0,0,0.2,0.2,0.2,0.2
					c0.7,0.6,1.1,1.6,1.1,2.6c0,2.5,0.3,5.4,2.4,8.5c1.8,2.6,4.7,4.5,8.1,5.1c-1.5,1.7-2.6,3.6-3.2,5.6c-0.9,3.1-0.7,6.5,0.5,9.5
					c1.2,3,3.6,5.5,6.4,7c2.1,1.1,4.5,1.7,7,1.7c-1.4,2.3-2.2,5.1-2,7.8c0.1,3.1,1.3,6,3.3,8.3c2.6,3,6.8,4.9,11.1,4.9
					c0.3,0,0.7,0,1,0c-0.3,0.7-0.6,1.5-0.9,2.3c-1.2,4-0.5,8.2,1.8,11.8c2.8,4.3,7.9,7.4,13.2,8.1c0.7,0.1,1.4,0.1,2.1,0.1
					c0.3,0,0.6,0,0.9,0c0.7,3.6,4.4,6.1,6.7,7.7l0.2,0.1c1.6,1.1,3.2,2,4.7,2.8c0.1,0,0.1,0.1,0.2,0.1c1.4,0.6,3.3,1.4,5.4,2
					c2.6,0.8,4.8,1.2,6.9,1.2c0.1,0,0.2,0,0.4,0c0.2,0,0.5,0,0.7-0.1c2,2.8,5.9,4.1,8.6,4.9l0.3,0.1c2,0.7,3.9,1.2,5.7,1.5
					c0.1,0,0.2,0,0.2,0c1.7,0.2,3.9,0.4,6.2,0.4l0.3,0c2.9,0,5.3-0.3,7.5-1c0.4-0.1,0.9-0.3,1.2-0.5c0.4,0.2,0.8,0.4,1.2,0.5
					c2.1,0.7,4.6,1,7.5,1l0.3,0c2.3,0,4.5-0.2,6.2-0.4c0.1,0,0.2,0,0.2,0c1.8-0.3,3.6-0.8,5.7-1.5l0.3-0.1c2.7-0.9,6.6-2.1,8.6-4.9
					c0.2,0,0.5,0,0.7,0.1c0.1,0,0.2,0,0.4,0c2.1,0,4.4-0.4,6.9-1.2c2.1-0.6,4-1.4,5.4-2c0.1,0,0.1-0.1,0.2-0.1
					c1.5-0.8,3-1.7,4.7-2.8l0.2-0.1c2.4-1.6,6-4.1,6.7-7.7c0.3,0,0.6,0,0.9,0c0.7,0,1.4,0,2.1-0.1c5.3-0.7,10.3-3.8,13.2-8.1
					c2.3-3.6,3-7.8,1.8-11.8c-0.2-0.8-0.5-1.5-0.9-2.3c0.3,0,0.7,0,1,0c4.3,0,8.5-1.8,11.1-4.9c2-2.3,3.2-5.3,3.3-8.3
					c0.1-2.7-0.6-5.5-2-7.8c2.5,0,4.9-0.6,7-1.7c2.8-1.5,5.2-4.1,6.4-7c1.2-3,1.4-6.4,0.5-9.5c-0.6-2-1.7-3.9-3.2-5.6
					c3.3-0.7,6.2-2.5,8.1-5.1c2.1-3.1,2.4-6,2.4-8.5c0-1,0.4-2,1.1-2.6c0,0,0.2-0.1,0.2-0.2c0.8-0.8,1.5-1.8,2-3.1
					c1.1-2.6,1.4-5.5,1.1-8.3c-0.4-3.4-2-6.6-4.3-9.2c0,0,0.1,0,0.1,0c4.1-0.5,9.2-2.7,11-7.5c0.8-2.2,0.4-4.7,0.1-6.8
					c-0.1-0.6-0.2-1.3-0.2-1.8c-0.1-1.6-0.1-3.4,0-5.1c0.2-4.6,0.4-9.3-2.5-13.1c-0.6-0.8-1.3-1.4-2-2c2.4-0.7,4.4-1.9,5.9-3.5
					c1.4-1.5,2.2-3.2,3-4.9c0.9-2,1.3-3.7,1.3-5.4c0-1.2-0.3-4.9-0.9-6.5c-0.6-1.7-1.1-2.8-1.6-3.8c-0.5-1-0.9-1.9-1.4-3.2
					c-0.7-2.2-1.7-4.9-3.8-7c-3-3-7.2-3.5-11.3-3.8c-1.9-0.1-3.6-0.2-5.3-0.2h-1.3c-0.9,0-1.8,0-2.7,0
					c-1.8,81.2-43.9,146.1-95.5,146.1c-51.6,0-93.6-64.9-95.5-146.1c-0.9,0-1.8,0-2.7,0h-1.3c-1.7,0-3.4,0.1-5.3,0.2
					c-4.1,0.3-8.3,0.8-11.3,3.8c-2.1,2.1-3,4.8-3.8,7c-0.5,1.4-0.9,2.3-1.4,3.2c-0.5,1.1-1.1,2.1-1.6,3.8c-0.6,1.6-0.9,5.3-0.9,6.5
					C140.9,284.1,141.3,285.8,142.2,287.8z"/>
				<g>
					<g>

							<linearGradient id="SVGID_1_" gradientUnits="userSpaceOnUse" x1="-2873.1431" y1="-4073.3762" x2="-2878.7571" y2="-4102.9775" gradientTransform="matrix(-1 0 0 -1 -2599.0828 -3649.542)">
							<stop  offset="0" style="stop-color:#CEDDDC"/>
								<stop  offset="5.772644e-02" style="stop-color:#D5E1E1"/>
								<stop  offset="0.234" style="stop-color:#E7EEEE"/>
								<stop  offset="0.4299" style="stop-color:#F3F6F7"/>
								<stop  offset="0.6587" style="stop-color:#FBFBFC"/>
								<stop  offset="1" style="stop-color:#FDFDFD"/>
						</linearGradient>
						<path class="st2" d="M276.1,427.2c2.1,0,4.1,0.8,6,2.4c2.3,2,3.7,4.1,5,6.2l0.2,0.3c2.1,3.3,4.3,6.8,4.9,10.3
							c0.1,0.4,0.1,1.1-0.2,1.7c-1.1,2.1-4.8,3.3-7.1,4.1l-0.3,0.1c-1.9,0.6-3.6,1.1-5.2,1.4c-1.6,0.2-3.7,0.4-5.8,0.4
							c-2.6,0-4.8-0.3-6.7-0.8c-0.3-0.1-1.1-0.4-1.3-1c-0.1-0.3-0.1-0.6-0.1-1c0.1-6.5,1.7-14.3,3.2-17.9c1-2.5,2.9-4.7,4.1-5.3
							c1-0.5,2-0.8,3.2-0.8C276,427.2,276.1,427.2,276.1,427.2z"/>

						<linearGradient id="SVGID_2_" gradientUnits="userSpaceOnUse" x1="-2903.123" y1="-4070.1992" x2="-2902.9956" y2="-4090.8689" gradientTransform="matrix(-1 0 0 -1 -2599.0828 -3649.542)">
							<stop  offset="0" style="stop-color:#CEDDDC"/>
							<stop  offset="1" style="stop-color:#FDFDFD"/>
						</linearGradient>
						<path class="st3" d="M296.8,421.7c1.8-0.6,3.9-0.3,5.9,0.6c2.6,1.2,4.3,2.7,6.1,4.2l0.2,0.2c2.7,2.4,5.6,4.9,7,7.9
							c0.2,0.4,0.4,1,0.2,1.6c-0.4,2.1-3.4,4.2-5.2,5.4l-0.2,0.1c-1.5,1-2.9,1.9-4.3,2.6c-1.4,0.6-3.1,1.3-5,1.9
							c-2.3,0.7-4.4,1-6.2,1c-0.3,0-1.1-0.1-1.4-0.5c-0.2-0.2-0.2-0.5-0.3-0.9c-1.6-5.8-2.2-13.1-1.9-16.7c0.3-2.5,1.3-4.9,2.3-5.8
							c0.7-0.7,1.6-1.2,2.6-1.5C296.7,421.7,296.7,421.7,296.8,421.7z"/>

						<linearGradient id="SVGID_3_" gradientUnits="userSpaceOnUse" x1="-2922.7507" y1="-4056.0061" x2="-2920.3264" y2="-4079.3552" gradientTransform="matrix(-1 0 0 -1 -2599.0828 -3649.542)">
							<stop  offset="0" style="stop-color:#CEDDDC"/>
							<stop  offset="1" style="stop-color:#FDFDFD"/>
						</linearGradient>
						<path class="st4" d="M316.2,406.8c1.4,0,2.7,0.3,3.8,0.6c2.9,0.7,5.7,1.8,8.3,3.2c2.9,1.5,5.1,4.1,6,7.2
							c2.3,7.8-4.8,14.4-12,15.4c-1.7,0.2-3.5,0.2-5-0.7c-1.4-0.9-2.3-2.6-3-4.3c-1.8-4.3-3-8.7-3.6-13.3c-0.3-2.1-0.4-4.6,1-6.3
							c0.8-1,2.1-1.6,3.7-1.8C315.6,406.8,315.9,406.8,316.2,406.8z"/>

						<linearGradient id="SVGID_4_" gradientUnits="userSpaceOnUse" x1="-2935.2302" y1="-4035.8164" x2="-2935.4854" y2="-4058.1448" gradientTransform="matrix(-1 0 0 -1 -2599.0828 -3649.542)">
							<stop  offset="0" style="stop-color:#CEDDDC"/>
							<stop  offset="1" style="stop-color:#FDFDFD"/>
						</linearGradient>
						<path class="st5" d="M331.4,386.8c1.1,0,2.3,0.2,3.5,0.5c2.4,0.7,4.7,2,6.5,3c2,1.2,4.1,2.6,5.5,4.6c1.3,1.8,2,4.1,1.9,6.3
							c-0.1,2.2-1,4.4-2.5,6.1c-2,2.3-5.1,3.6-8.4,3.6c-0.8,0-1.7-0.1-2.5-0.3c-3.8-0.8-7.3-3.5-9.3-7.2c-1.6-2.9-2.4-6.3-2.3-9.9
							c0.1-2.7,1.6-5,4-6c0.1-0.1,0.3-0.1,0.4-0.2C329.2,387,330.3,386.8,331.4,386.8z"/>

						<linearGradient id="SVGID_5_" gradientUnits="userSpaceOnUse" x1="-2945.0188" y1="-4014.8574" x2="-2945.7839" y2="-4039.9805" gradientTransform="matrix(-1 0 0 -1 -2599.0828 -3649.542)">
							<stop  offset="0" style="stop-color:#CEDDDC"/>
							<stop  offset="1" style="stop-color:#FDFDFD"/>
						</linearGradient>
						<path class="st6" d="M341,365.1c1.5,0,3.3,0.2,5.3,0.7c3.7,0.8,6.5,1.9,8.8,3.5c2.8,1.8,4.8,4.4,5.6,7.1
							c0.7,2.3,0.6,4.9-0.4,7.1c-0.9,2.2-2.7,4.1-4.8,5.3c-1.6,0.9-3.5,1.3-5.5,1.3c-1.6,0-3.3-0.3-4.9-0.9
							c-3.1-1.1-6.1-3.3-8.9-6.4c-1.7-1.9-3-3.7-3.8-5.6c-0.4-1-0.7-2-0.9-3c-0.5-2.3,0.2-4.6,1.8-6.2c0.9-0.9,1.8-1.5,2.9-2
							C337.6,365.4,339.2,365.1,341,365.1z"/>

						<linearGradient id="SVGID_6_" gradientUnits="userSpaceOnUse" x1="-2954.99" y1="-3979.2068" x2="-2954.0967" y2="-4008.1702" gradientTransform="matrix(-1 0 0 -1 -2599.0828 -3649.542)">
							<stop  offset="0" style="stop-color:#CEDDDC"/>
							<stop  offset="1" style="stop-color:#FDFDFD"/>
						</linearGradient>
						<path class="st7" d="M356.1,328.7c3.3,0.4,6.5,1.4,9,2.9c4,2.4,6.7,6.4,7.2,10.6c0.3,2.2,0,4.5-0.8,6.5
							c-0.3,0.9-0.7,1.5-1.1,1.9l-0.1,0.1c-1.5,1.3-2.4,3.2-2.4,5.3c0,2-0.2,4.2-1.8,6.5c-1.9,2.8-5.6,4.3-9.5,3.9
							c-0.1,0-0.2,0-0.4,0c-3.2-0.5-6.5-2.1-10.1-5.1c-2.3-1.9-3.8-3.6-4.8-5.4c-1.4-2.6-2.5-4.7-2.8-7.4c-0.2-1.9-0.1-4,0.2-6.7
							c0.3-2.5,0.9-5.4,2.5-7.7c1.1-1.7,2.9-3.1,4.9-3.9C349,328.8,352.5,328.3,356.1,328.7z"/>

						<linearGradient id="SVGID_7_" gradientUnits="userSpaceOnUse" x1="-2965.5273" y1="-3911.9363" x2="-2965.6548" y2="-3924.4402" gradientTransform="matrix(-1 0 0 -1 -2599.0828 -3649.542)">
							<stop  offset="0" style="stop-color:#CEDDDC"/>
							<stop  offset="1" style="stop-color:#FDFDFD"/>
						</linearGradient>
						<path class="st8" d="M364,261.4c1.6,0,3.3,0.1,5.1,0.2c3.5,0.2,6.9,0.6,9,2.8c1.5,1.5,2.2,3.7,2.9,5.6
							c0.5,1.6,1.1,2.6,1.6,3.6c0.5,1,1,1.9,1.5,3.4c0.3,1,0.7,4.1,0.7,5.3c0,1.2-0.3,2.4-1,3.9c-0.7,1.5-1.4,2.9-2.4,4
							c-1.8,1.9-4.7,3-8.7,3.1c-0.3,0-0.6,0-0.9,0c-6.2,0-12-2-16.1-5.6c-4.3-3.8-7-9.4-7.1-15.1c-0.1-4.1,2-6.2,4.3-8.1
							c1.9-1.6,4.5-2.6,7.6-3C361.5,261.5,362.7,261.4,364,261.4z"/>

						<linearGradient id="SVGID_8_" gradientUnits="userSpaceOnUse" x1="-2963.4895" y1="-3944.583" x2="-2961.1929" y2="-3978.1394" gradientTransform="matrix(-1 0 0 -1 -2599.0828 -3649.542)">
							<stop  offset="0" style="stop-color:#CEDDDC"/>
							<stop  offset="1" style="stop-color:#FDFDFD"/>
						</linearGradient>
						<path class="st9" d="M353.3,295.7c-3.2,2.6-5.7,5.6-6.5,9.9c-0.7,3.6-0.6,7.1,0.1,10.2c0.9,4,3.4,7.4,7,9.1c0,0,0,0,0.1,0
							c2.1,1,4.4,1.7,6.8,2.3l0.8,0.2c2.7,0.8,5.6,1.6,8.3,1.6c0.5,0,1,0,1.4-0.1c3-0.3,6.8-1.9,8.1-5.2c0.5-1.3,0.2-3.2-0.1-5
							c-0.1-0.7-0.2-1.4-0.3-2c-0.2-1.8-0.1-3.7,0-5.6c0.2-4.1,0.3-8-1.8-10.9c-1.6-2.1-5.1-3.1-8.2-4c-0.8-0.2-1.6-0.5-2.4-0.7
							c-2.4-0.8-5.4-1.4-8.1-1.4C355.8,294.2,354.8,294.9,353.3,295.7z"/>
						<g>
							<path class="st0" d="M283.5,425.8c0,0-0.3-0.1-0.9-0.4c-0.6-0.2-1.4-0.6-2.3-0.9c-1-0.3-2.1-0.5-3.2-0.6
								c-0.6-0.1-1.1,0-1.8,0c-0.6,0-1.2,0.1-1.8,0.3c-0.6,0.1-1.2,0.3-1.7,0.6c-0.5,0.3-1,0.5-1.5,0.9c-0.9,0.7-1.8,1.5-2.5,2.3
								c-1.4,1.5-2.3,2.7-2.3,2.7s0-0.4,0.2-1c0.1-0.6,0.4-1.5,0.9-2.5c0.5-1,1.2-2.1,2.2-3.1c0.5-0.5,1.2-1,1.9-1.4
								c0.7-0.3,1.4-0.6,2.2-0.8c0.8-0.2,1.5-0.3,2.3-0.3c0.7,0,1.6,0.1,2.2,0.2c1.4,0.3,2.6,0.9,3.6,1.5c0.9,0.6,1.6,1.3,2,1.8
								C283.3,425.5,283.5,425.8,283.5,425.8z"/>
							<path class="st0" d="M302.9,418.2c0,0-0.3-0.1-0.9-0.2c-0.6-0.1-1.4-0.2-2.3-0.2c-1.8,0-4.2,0.4-6.2,1.6
								c-0.6,0.3-0.9,0.6-1.4,1c-0.4,0.4-0.8,0.8-1.2,1.2c-0.7,0.8-1.3,1.7-1.7,2.6c-0.4,0.8-0.8,1.6-1,2.1
								c-0.2,0.5-0.4,0.9-0.4,0.9s-0.1-0.3-0.1-0.9c-0.1-0.6-0.1-1.5,0.1-2.5c0.2-1,0.5-2.3,1.3-3.4c0.4-0.6,0.8-1.2,1.3-1.7
								c0.3-0.3,0.5-0.5,0.8-0.7c0.3-0.2,0.6-0.5,0.9-0.6c1.3-0.8,2.7-1.2,4.1-1.3c1.4-0.1,2.6,0.1,3.6,0.4c1,0.3,1.8,0.8,2.3,1.2
								C302.7,418,302.9,418.2,302.9,418.2z"/>
							<path class="st0" d="M319.3,403.3c0,0-0.3,0-0.9,0c-0.6,0-1.4,0-2.4,0.1c-0.9,0.1-2,0.2-3.1,0.5c-1,0.3-2.1,0.8-2.9,1.5
								c-0.4,0.3-0.8,0.7-1.2,1.1l-0.2,0.3l-0.3,0.4c-0.1,0.2-0.3,0.4-0.4,0.7c-0.5,0.9-0.7,1.9-0.9,2.8c-0.1,0.9-0.2,1.8-0.2,2.3
								c-0.1,0.6-0.1,0.9-0.1,0.9s-0.2-0.3-0.4-0.8c-0.2-0.5-0.6-1.3-0.7-2.4c-0.2-1-0.2-2.4,0.3-3.7c0.1-0.3,0.3-0.7,0.4-1l0.2-0.4
								c0.1-0.2,0.2-0.3,0.3-0.5c0.4-0.6,1-1.2,1.6-1.7c0.6-0.5,1.3-0.8,2-1.1c0.7-0.3,1.4-0.4,2.1-0.5c1.4-0.2,2.6,0,3.6,0.2
								c1,0.2,1.8,0.6,2.3,0.9C319,403.2,319.3,403.3,319.3,403.3z"/>
							<path class="st0" d="M329.8,383.2c0,0-0.4,0.1-1,0.2c-0.6,0.1-1.5,0.5-2.4,0.9c-0.9,0.5-1.9,1.2-2.9,2.1
								c-0.5,0.4-0.9,0.9-1.2,1.5c-0.4,0.5-0.7,1.1-0.9,1.7c-0.3,0.6-0.5,1.3-0.6,1.9c-0.1,0.6-0.2,1.3-0.2,1.9
								c-0.1,1.3,0,2.6,0.1,3.7c0.3,2.3,0.5,3.8,0.5,3.8s-0.2-0.3-0.6-0.9c-0.4-0.6-0.9-1.4-1.3-2.5c-0.4-1.1-0.9-2.4-1-4
								c0-0.8-0.1-1.6,0.1-2.4c0.1-0.9,0.3-1.6,0.7-2.5c0.7-1.6,1.8-2.9,3.1-3.9c1.3-1,2.6-1.5,3.8-1.7c1.2-0.2,2.2-0.2,2.9-0.1
								c0.3,0,0.6,0.1,0.8,0.2C329.7,383.1,329.8,383.2,329.8,383.2z"/>
							<path class="st0" d="M339.2,361.8c0,0-0.4,0.1-1,0.3c-0.6,0.2-1.5,0.4-2.5,0.8c-1,0.4-2.1,0.9-3.1,1.7
								c-0.5,0.4-1,0.8-1.5,1.2c-0.2,0.2-0.5,0.5-0.7,0.7c-0.3,0.3-0.5,0.5-0.6,0.8c-0.8,1-1.3,2.2-1.7,3.4
								c-0.3,1.2-0.4,2.4-0.4,3.5c0.1,1.1,0.2,2,0.3,2.7c0.1,0.7,0.2,1,0.2,1s-0.3-0.3-0.6-0.9c-0.4-0.6-0.8-1.4-1.2-2.6
								c-0.4-1.1-0.6-2.6-0.4-4.2c0.2-1.6,0.8-3.2,1.8-4.5c0.3-0.4,0.6-0.7,0.8-0.9c0.3-0.3,0.6-0.6,0.9-0.8c0.6-0.5,1.3-0.9,2-1.3
								c1.4-0.7,2.8-1,4-1.2c1.2-0.1,2.2,0,2.8,0.1C338.9,361.7,339.2,361.8,339.2,361.8z"/>
							<path class="st0" d="M343.1,327.6c0,0-0.4,0.3-1.1,0.8c-0.7,0.5-1.6,1.3-2.6,2.5c-0.9,1.1-1.8,2.5-2.6,4.1
								c-0.4,0.8-0.7,1.7-1,2.6c-0.3,0.9-0.5,1.7-0.6,2.8c-0.2,0.9-0.3,1.9-0.3,2.8c0,0.9-0.1,1.9,0,2.8c0.1,1.8,0.4,3.5,0.7,4.9
								c0.3,1.4,0.7,2.6,1,3.5c0.3,0.8,0.4,1.3,0.4,1.3s-0.3-0.4-0.9-1.1c-0.5-0.7-1.3-1.8-1.9-3.2c-0.7-1.4-1.3-3.2-1.5-5.2
								c-0.3-2-0.2-4.1,0.1-6.3c0.2-1,0.5-2.1,0.8-3.1c0.3-1,0.8-1.9,1.3-2.8c1-1.8,2.3-3.2,3.5-4.2c1.3-1,2.5-1.6,3.3-1.8
								c0.4-0.2,0.8-0.2,1-0.3C343,327.7,343.1,327.6,343.1,327.6z"/>
							<path class="st0" d="M349.8,293.5c0,0-0.4,0.4-1.1,1.2c-0.6,0.7-1.5,1.8-2.4,3.2c-0.9,1.4-1.8,3.1-2.5,4.9
								c-0.4,0.9-0.6,1.9-0.9,3c-0.1,0.5-0.2,1.1-0.3,1.5c-0.1,0.6-0.1,1.1-0.2,1.6c-0.2,2.1,0,4.2,0.4,6.2c0.2,1,0.4,1.9,0.7,2.8
								c0.3,0.9,0.6,1.7,1,2.4c0.7,1.5,1.5,2.6,2.1,3.4c0.6,0.8,1,1.2,1,1.2s-0.1-0.1-0.4-0.2c-0.2-0.1-0.6-0.3-1-0.6
								c-0.4-0.3-0.9-0.7-1.4-1.2c-0.5-0.5-1.1-1.1-1.6-1.8c-1-1.4-2-3.3-2.6-5.4c-0.3-1.1-0.6-2.2-0.7-3.4
								c-0.1-1.2-0.2-2.3-0.1-3.6c0-0.6,0.1-1.2,0.2-1.7c0.1-0.6,0.2-1.2,0.4-1.8c0.3-1.1,0.7-2.2,1.2-3.2c0.9-2,2.2-3.7,3.4-5
								c1.2-1.3,2.4-2.1,3.2-2.7C349.3,293.8,349.8,293.5,349.8,293.5z"/>
							<path class="st0" d="M358.1,259.9c0,0-0.6,0.2-1.6,0.5c-1,0.3-2.4,0.8-4,1.6c-1.6,0.8-3.2,1.9-4.6,3.5
								c-0.7,0.8-1.3,1.7-1.8,2.6c-0.3,0.5-0.4,0.9-0.6,1.5c-0.1,0.5-0.3,1-0.3,1.5c-0.2,1.1-0.2,2.2-0.1,3.2
								c0.1,1.1,0.3,2.2,0.7,3.2c0.3,1,0.7,2,1.1,2.9c0.4,0.9,0.9,1.7,1.3,2.5c0.9,1.5,1.8,2.7,2.5,3.5c0.7,0.8,1.1,1.3,1.1,1.3
								s-0.5-0.3-1.4-0.9c-0.9-0.6-2.1-1.6-3.3-3c-0.6-0.7-1.2-1.5-1.8-2.4c-0.6-0.9-1.1-2-1.6-3c-0.9-2.2-1.4-4.9-1-7.6
								c0.1-0.7,0.3-1.3,0.5-2c0.2-0.5,0.5-1.3,0.8-1.8c0.6-1.2,1.5-2.2,2.4-3c1.8-1.7,3.9-2.7,5.7-3.3c1.8-0.6,3.4-0.7,4.4-0.8
								C357.5,259.8,358.1,259.9,358.1,259.9z"/>
						</g>

						<radialGradient id="SVGID_9_" cx="-2807.9106" cy="-2606.6909" r="12.1124" gradientTransform="matrix(-2.0181 0 0 -1.545 -5307.7676 -3660.928)" gradientUnits="userSpaceOnUse">
							<stop  offset="0" style="stop-color:#CEDDDC"/>
							<stop  offset="1" style="stop-color:#FDFDFD"/>
						</radialGradient>
						<path class="st10" d="M343.2,354.8c0.9,1.6,2.2,3,4.3,4.8c3.3,2.7,6.3,4.3,9.1,4.7c0.1,0,0.2,0,0.3,0c0.3,0,0.7,0.1,1,0.1
							c2.7,0,5.2-1.2,6.5-3.1c1.2-1.7,1.4-3.3,1.4-5.3c0-2.7,1.1-5.2,3.1-6.8l0,0c0.1-0.1,0.4-0.4,0.6-1.1c0.7-1.7,0.9-3.6,0.7-5.5
							c-0.5-3.6-2.8-7-6.3-9.1c-2.3-1.4-5.2-2.3-8.2-2.7c-0.8-0.1-1.5-0.1-2.3-0.1c-2.4,0-4.7,0.4-6.7,1.3c-1.7,0.7-3.1,1.9-4.1,3.2
							c-1.3,1.9-1.8,4.5-2.1,6.8c-0.3,2.6-0.4,4.5-0.2,6.2C340.8,350.4,341.8,352.4,343.2,354.8z"/>

						<radialGradient id="SVGID_10_" cx="-2815.2959" cy="-3822.5896" r="10.9853" gradientTransform="matrix(-2.0181 0 0 -2.0181 -5307.7676 -7417.3345)" gradientUnits="userSpaceOnUse">
							<stop  offset="0" style="stop-color:#CDD2D2"/>
							<stop  offset="1" style="stop-color:#FDFDFD"/>
						</radialGradient>
						<path class="st11" d="M356.9,286.3c3.8,3.3,9,5.1,14.8,5.1c0.3,0,0.6,0,0.8,0c3.4-0.1,5.9-0.9,7.3-2.5c0.8-0.9,1.4-2.1,2-3.4
							c0.6-1.2,0.8-2.2,0.8-3.1c0-1.2-0.3-4-0.6-4.7c-0.5-1.3-0.9-2.2-1.4-3.2c-0.5-1-1.1-2.2-1.7-3.9c-0.6-1.7-1.3-3.7-2.4-4.8
							c-1.7-1.6-4.6-2-7.7-2.2c-1.8-0.1-3.4-0.2-4.9-0.2c-1.2,0-2.3,0.1-3.3,0.2c-2.7,0.3-5,1.2-6.6,2.6c-2.1,1.7-3.6,3.2-3.5,6.5
							C350.6,277.8,353,282.9,356.9,286.3z"/>

						<radialGradient id="SVGID_11_" cx="-2814.6831" cy="-2525.3831" r="9.7818" gradientTransform="matrix(-2.0181 0 0 -1.5291 -5307.7676 -3534.3257)" gradientUnits="userSpaceOnUse">
							<stop  offset="0" style="stop-color:#CEDDDC"/>
							<stop  offset="1" style="stop-color:#FDFDFD"/>
						</radialGradient>
						<path class="st12" d="M354.7,323L354.7,323c2,0.9,4.3,1.6,6.6,2.2l0.8,0.2c2.6,0.7,5.3,1.5,7.7,1.5c0.4,0,0.8,0,1.2-0.1
							c2.6-0.3,5.5-1.6,6.4-3.9c0.3-0.8,0-2.6-0.2-3.9c-0.1-0.7-0.2-1.5-0.3-2.2c-0.2-1.9-0.1-3.9,0-5.8c0.1-3.8,0.3-7.3-1.4-9.6
							c-1.2-1.6-4.5-2.5-7.1-3.3c-0.8-0.2-1.6-0.5-2.4-0.7c-2.4-0.8-5.2-1.3-7.5-1.3c-2,0-2.7,0.4-3.9,1.1l-0.2,0.1
							c-3.3,2.6-5,5.3-5.7,8.5c-0.6,3.1-0.6,6.3,0.1,9.4C349.6,318.8,351.8,321.6,354.7,323z"/>

						<radialGradient id="SVGID_12_" cx="-2803.5337" cy="-1083.8229" r="9.6792" gradientTransform="matrix(-2.0181 0 0 -1.1989 -5307.7676 -912.5334)" gradientUnits="userSpaceOnUse">
							<stop  offset="0" style="stop-color:#CEDDDC"/>
							<stop  offset="1" style="stop-color:#FDFDFD"/>
						</radialGradient>
						<path class="st13" d="M334.3,376.3c0.7,1.6,1.9,3.3,3.4,5c2.6,2.9,5.3,4.8,8.1,5.8c1.4,0.5,2.8,0.7,4.2,0.7
							c1.7,0,3.2-0.4,4.6-1.1c1.7-0.9,3.1-2.5,3.9-4.2c0.7-1.8,0.9-3.9,0.3-5.7c-0.7-2.3-2.4-4.4-4.8-6c-2.1-1.4-4.8-2.4-8.2-3.2
							c-1.9-0.4-3.4-0.6-4.8-0.6c-1.6,0-2.9,0.2-4,0.7c-0.9,0.4-1.6,0.9-2.3,1.6c-1.1,1.1-1.5,2.7-1.2,4.3
							C333.7,374.7,333.9,375.5,334.3,376.3z"/>

						<radialGradient id="SVGID_13_" cx="-2768.79" cy="-3900.5967" r="8.2382" gradientTransform="matrix(-2.0181 0 0 -2.0181 -5307.7676 -7417.3345)" gradientUnits="userSpaceOnUse">
							<stop  offset="0" style="stop-color:#CEDDDC"/>
							<stop  offset="1" style="stop-color:#FDFDFD"/>
						</radialGradient>
						<path class="st14" d="M273.3,452l0.3,0c2,0,4-0.2,5.5-0.4c1.5-0.3,3.1-0.7,4.9-1.3l0.3-0.1c1.5-0.5,5.2-1.7,5.9-3.1
							c0-0.1,0.1-0.3,0-0.5c-0.5-3.1-2.6-6.4-4.6-9.5l-0.2-0.3c-1.3-2.1-2.6-4-4.6-5.8c-1.5-1.3-3.1-1.9-4.6-1.9l-0.2,0
							c-0.8,0-1.6,0.2-2.3,0.6c-0.6,0.3-2.2,2-3.2,4.3c-1.4,3.4-2.9,11.1-3,17.2C269.1,451.8,271,452,273.3,452z"/>

						<radialGradient id="SVGID_14_" cx="-2781.6448" cy="-3383.3391" r="6.1635" gradientTransform="matrix(-2.0181 0 0 -1.7915 -5307.7676 -5617.6567)" gradientUnits="userSpaceOnUse">
							<stop  offset="0" style="stop-color:#CEDDDC"/>
							<stop  offset="1" style="stop-color:#FDFDFD"/>
						</radialGradient>
						<path class="st15" d="M295.6,445.1c1.5,0,3.3-0.3,5.3-0.9c1.8-0.5,3.5-1.2,4.8-1.8c1.3-0.7,2.6-1.4,4-2.4l0.2-0.1
							c1.2-0.8,4.1-2.8,4.3-4.1c0,0,0-0.2-0.1-0.3c-1.2-2.6-3.9-4.9-6.5-7.2l-0.2-0.2c-1.7-1.5-3.3-2.9-5.6-3.9
							c-1-0.5-2.1-0.7-3-0.7c-0.5,0-1,0.1-1.5,0.2l-0.1,0c-0.7,0.2-1.3,0.6-1.8,1.1c-0.5,0.4-1.4,2.3-1.6,4.5
							C293.5,432.6,294.1,439.7,295.6,445.1L295.6,445.1z"/>

						<radialGradient id="SVGID_15_" cx="-2791.0566" cy="-3889.7126" r="7.5678" gradientTransform="matrix(-2.0181 0 0 -2.0181 -5307.7676 -7417.3345)" gradientUnits="userSpaceOnUse">
							<stop  offset="0" style="stop-color:#CEDDDC"/>
							<stop  offset="1" style="stop-color:#FDFDFD"/>
						</radialGradient>
						<path class="st16" d="M316.2,427.4c0.5,1.3,1.2,2.7,2.1,3.3c0.6,0.4,1.3,0.5,2.3,0.5c0.4,0,0.9,0,1.4-0.1
							c3.7-0.5,7.3-2.7,9.2-5.6c1-1.6,2-4.1,1.1-7.2c-0.7-2.5-2.6-4.7-5-6c-2.5-1.3-5.2-2.3-7.9-3c-0.9-0.2-2.1-0.5-3.3-0.5
							c-0.2,0-0.4,0-0.6,0c-1,0.1-1.9,0.5-2.3,1c-0.9,1.1-0.7,3.2-0.5,4.7C313.3,419,314.5,423.3,316.2,427.4z"/>

						<radialGradient id="SVGID_16_" cx="-2798.0789" cy="-1787.9514" r="7.5113" gradientTransform="matrix(-2.0181 0 0 -1.3325 -5307.7676 -1973.4298)" gradientUnits="userSpaceOnUse">
							<stop  offset="0" style="stop-color:#CEDDDC"/>
							<stop  offset="1" style="stop-color:#FDFDFD"/>
						</radialGradient>
						<path class="st17" d="M335.9,408.7c0.7,0.1,1.4,0.2,2,0.2c2.7,0,5.3-1.1,6.9-2.9c1.2-1.4,1.9-3.1,2-4.9c0.1-1.8-0.4-3.6-1.5-5
							c-1.2-1.7-3.1-2.9-4.9-4c-1.6-1-3.7-2.2-5.9-2.8c-1-0.3-2-0.4-3-0.4c-0.9,0-1.8,0.1-2.5,0.4c-0.1,0-0.2,0.1-0.3,0.1
							c-1.6,0.7-2.7,2.3-2.8,4.2c-0.1,3.3,0.6,6.4,2,8.9C329.6,405.7,332.6,408,335.9,408.7z"/>
					</g>
					<g>

							<linearGradient id="SVGID_17_" gradientUnits="userSpaceOnUse" x1="388.2558" y1="-4073.3762" x2="382.6418" y2="-4102.9775" gradientTransform="matrix(1 0 0 -1 -133.1562 -3649.542)">
							<stop  offset="0" style="stop-color:#CEDDDC"/>
								<stop  offset="5.772644e-02" style="stop-color:#D5E1E1"/>
								<stop  offset="0.234" style="stop-color:#E7EEEE"/>
								<stop  offset="0.4299" style="stop-color:#F3F6F7"/>
								<stop  offset="0.6587" style="stop-color:#FBFBFC"/>
								<stop  offset="1" style="stop-color:#FDFDFD"/>
						</linearGradient>
						<path class="st18" d="M253,427.2c-2.1,0-4.1,0.8-6,2.4c-2.3,2-3.7,4.1-5,6.2l-0.2,0.3c-2.1,3.3-4.3,6.8-4.9,10.3
							c-0.1,0.4-0.1,1.1,0.2,1.7c1.1,2.1,4.8,3.3,7.1,4.1l0.3,0.1c1.9,0.6,3.6,1.1,5.2,1.4c1.6,0.2,3.7,0.4,5.8,0.4
							c2.6,0,4.8-0.3,6.7-0.8c0.3-0.1,1.1-0.4,1.3-1c0.1-0.3,0.1-0.6,0.1-1c-0.1-6.5-1.7-14.3-3.2-17.9c-1-2.5-2.9-4.7-4.1-5.3
							c-1-0.5-2-0.8-3.2-0.8C253.1,427.2,253.1,427.2,253,427.2z"/>

						<linearGradient id="SVGID_18_" gradientUnits="userSpaceOnUse" x1="358.2758" y1="-4070.1992" x2="358.4034" y2="-4090.8689" gradientTransform="matrix(1 0 0 -1 -133.1562 -3649.542)">
							<stop  offset="0" style="stop-color:#CEDDDC"/>
							<stop  offset="1" style="stop-color:#FDFDFD"/>
						</linearGradient>
						<path class="st19" d="M232.4,421.7c-1.8-0.6-3.9-0.3-5.9,0.6c-2.6,1.2-4.3,2.7-6.1,4.2l-0.2,0.2c-2.7,2.4-5.6,4.9-7,7.9
							c-0.2,0.4-0.4,1-0.2,1.6c0.4,2.1,3.4,4.2,5.2,5.4l0.2,0.1c1.5,1,2.9,1.9,4.3,2.6c1.4,0.6,3.1,1.3,5,1.9c2.3,0.7,4.4,1,6.2,1
							c0.3,0,1.1-0.1,1.4-0.5c0.2-0.2,0.2-0.5,0.3-0.9c1.6-5.8,2.2-13.1,1.9-16.7c-0.3-2.5-1.3-4.9-2.3-5.8
							c-0.7-0.7-1.6-1.2-2.6-1.5C232.5,421.7,232.4,421.7,232.4,421.7z"/>

						<linearGradient id="SVGID_19_" gradientUnits="userSpaceOnUse" x1="338.6483" y1="-4056.0061" x2="341.0725" y2="-4079.3552" gradientTransform="matrix(1 0 0 -1 -133.1562 -3649.542)">
							<stop  offset="0" style="stop-color:#CEDDDC"/>
							<stop  offset="1" style="stop-color:#FDFDFD"/>
						</linearGradient>
						<path class="st20" d="M213,406.8c-1.4,0-2.7,0.3-3.8,0.6c-2.9,0.7-5.7,1.8-8.3,3.2c-2.9,1.5-5.1,4.1-6,7.2
							c-2.3,7.8,4.8,14.4,12,15.4c1.7,0.2,3.5,0.2,5-0.7c1.4-0.9,2.3-2.6,3-4.3c1.8-4.3,3-8.7,3.6-13.3c0.3-2.1,0.4-4.6-1-6.3
							c-0.8-1-2.1-1.6-3.7-1.8C213.5,406.8,213.3,406.8,213,406.8z"/>

						<linearGradient id="SVGID_20_" gradientUnits="userSpaceOnUse" x1="326.1686" y1="-4035.8164" x2="325.9135" y2="-4058.1448" gradientTransform="matrix(1 0 0 -1 -133.1562 -3649.542)">
							<stop  offset="0" style="stop-color:#CEDDDC"/>
							<stop  offset="1" style="stop-color:#FDFDFD"/>
						</linearGradient>
						<path class="st21" d="M197.7,386.8c-1.1,0-2.3,0.2-3.5,0.5c-2.4,0.7-4.7,2-6.5,3c-2,1.2-4.1,2.6-5.5,4.6
							c-1.3,1.8-2,4.1-1.9,6.3c0.1,2.2,1,4.4,2.5,6.1c2,2.3,5.1,3.6,8.4,3.6c0.8,0,1.7-0.1,2.5-0.3c3.8-0.8,7.3-3.5,9.3-7.2
							c1.6-2.9,2.4-6.3,2.3-9.9c-0.1-2.7-1.6-5-4-6c-0.1-0.1-0.3-0.1-0.4-0.2C200,387,198.9,386.8,197.7,386.8z"/>

						<linearGradient id="SVGID_21_" gradientUnits="userSpaceOnUse" x1="316.3801" y1="-4014.8574" x2="315.6149" y2="-4039.9805" gradientTransform="matrix(1 0 0 -1 -133.1562 -3649.542)">
							<stop  offset="0" style="stop-color:#CEDDDC"/>
							<stop  offset="1" style="stop-color:#FDFDFD"/>
						</linearGradient>
						<path class="st22" d="M188.1,365.1c-1.5,0-3.3,0.2-5.3,0.7c-3.7,0.8-6.5,1.9-8.8,3.5c-2.8,1.8-4.8,4.4-5.6,7.1
							c-0.7,2.3-0.6,4.9,0.4,7.1c0.9,2.2,2.7,4.1,4.8,5.3c1.6,0.9,3.5,1.3,5.5,1.3c1.6,0,3.3-0.3,4.9-0.9c3.1-1.1,6.1-3.3,8.9-6.4
							c1.7-1.9,3-3.7,3.8-5.6c0.4-1,0.7-2,0.9-3c0.5-2.3-0.2-4.6-1.8-6.2c-0.9-0.9-1.8-1.5-2.9-2C191.5,365.4,190,365.1,188.1,365.1
							z"/>

						<linearGradient id="SVGID_22_" gradientUnits="userSpaceOnUse" x1="306.409" y1="-3979.2068" x2="307.3022" y2="-4008.1702" gradientTransform="matrix(1 0 0 -1 -133.1562 -3649.542)">
							<stop  offset="0" style="stop-color:#CEDDDC"/>
							<stop  offset="1" style="stop-color:#FDFDFD"/>
						</linearGradient>
						<path class="st23" d="M173,328.7c-3.3,0.4-6.5,1.4-9,2.9c-4,2.4-6.7,6.4-7.2,10.6c-0.3,2.2,0,4.5,0.8,6.5
							c0.3,0.9,0.7,1.5,1.1,1.9l0.1,0.1c1.5,1.3,2.4,3.2,2.4,5.3c0,2,0.2,4.2,1.8,6.5c1.9,2.8,5.6,4.3,9.5,3.9c0.1,0,0.2,0,0.4,0
							c3.2-0.5,6.5-2.1,10.1-5.1c2.3-1.9,3.8-3.6,4.8-5.4c1.4-2.6,2.5-4.7,2.8-7.4c0.2-1.9,0.1-4-0.2-6.7c-0.3-2.5-0.9-5.4-2.5-7.7
							c-1.2-1.7-2.9-3.1-4.9-3.9C180.2,328.8,176.6,328.3,173,328.7z"/>

						<linearGradient id="SVGID_23_" gradientUnits="userSpaceOnUse" x1="295.8716" y1="-3911.9363" x2="295.744" y2="-3924.4402" gradientTransform="matrix(1 0 0 -1 -133.1562 -3649.542)">
							<stop  offset="0" style="stop-color:#CEDDDC"/>
							<stop  offset="1" style="stop-color:#FDFDFD"/>
						</linearGradient>
						<path class="st24" d="M165.2,261.4c-1.6,0-3.3,0.1-5.1,0.2c-3.5,0.2-6.9,0.6-9,2.8c-1.5,1.5-2.2,3.7-2.9,5.6
							c-0.5,1.6-1.1,2.6-1.6,3.6c-0.5,1-1,1.9-1.5,3.4c-0.3,1-0.7,4.1-0.7,5.3c0,1.2,0.3,2.4,1,3.9c0.7,1.5,1.4,2.9,2.4,4
							c1.8,1.9,4.7,3,8.7,3.1c0.3,0,0.6,0,0.9,0c6.2,0,12-2,16.1-5.6c4.3-3.8,7-9.4,7.1-15.1c0.1-4.1-2-6.2-4.3-8.1
							c-1.9-1.6-4.5-2.6-7.6-3C167.7,261.5,166.5,261.4,165.2,261.4z"/>

						<linearGradient id="SVGID_24_" gradientUnits="userSpaceOnUse" x1="297.9094" y1="-3944.583" x2="300.2061" y2="-3978.1394" gradientTransform="matrix(1 0 0 -1 -133.1562 -3649.542)">
							<stop  offset="0" style="stop-color:#CEDDDC"/>
							<stop  offset="1" style="stop-color:#FDFDFD"/>
						</linearGradient>
						<path class="st25" d="M175.9,295.7c3.2,2.6,5.7,5.6,6.5,9.9c0.7,3.6,0.6,7.1-0.1,10.2c-0.9,4-3.4,7.4-7,9.1c0,0,0,0-0.1,0
							c-2.1,1-4.4,1.7-6.8,2.3l-0.8,0.2c-2.7,0.8-5.6,1.6-8.3,1.6c-0.5,0-1,0-1.4-0.1c-3-0.3-6.8-1.9-8.1-5.2
							c-0.5-1.3-0.2-3.2,0.1-5c0.1-0.7,0.2-1.4,0.3-2c0.2-1.8,0.1-3.7,0-5.6c-0.2-4.1-0.3-8,1.8-10.9c1.6-2.1,5.1-3.1,8.2-4
							c0.8-0.2,1.6-0.5,2.4-0.7c2.4-0.8,5.4-1.4,8.1-1.4S174.4,294.9,175.9,295.7z"/>
						<g>
							<path class="st0" d="M245.7,425.8c0,0,0.2-0.3,0.6-0.8c0.4-0.5,1-1.2,2-1.8c0.9-0.6,2.1-1.2,3.6-1.5c0.7-0.1,1.5-0.2,2.2-0.2
								c0.8,0,1.5,0.1,2.3,0.3c0.8,0.2,1.5,0.5,2.2,0.8c0.7,0.3,1.4,0.9,1.9,1.4c1,1,1.7,2.1,2.2,3.1c0.5,1,0.7,1.9,0.9,2.5
								c0.1,0.6,0.2,1,0.2,1s-0.9-1.2-2.3-2.7c-0.7-0.7-1.5-1.6-2.5-2.3c-0.5-0.4-0.9-0.6-1.5-0.9c-0.5-0.3-1.1-0.4-1.7-0.6
								c-0.6-0.2-1.2-0.3-1.8-0.3c-0.7,0-1.2-0.1-1.8,0c-1.2,0.1-2.3,0.3-3.2,0.6c-0.9,0.3-1.8,0.6-2.3,0.9
								C246,425.7,245.7,425.8,245.7,425.8z"/>
							<path class="st0" d="M226.3,418.2c0,0,0.2-0.3,0.7-0.6c0.5-0.4,1.2-0.8,2.3-1.2c1-0.3,2.3-0.5,3.6-0.4
								c1.4,0.1,2.8,0.6,4.1,1.3c0.3,0.2,0.6,0.4,0.9,0.6c0.3,0.2,0.6,0.5,0.8,0.7c0.5,0.5,0.9,1.1,1.3,1.7c0.7,1.2,1.1,2.4,1.3,3.4
								c0.2,1,0.2,1.9,0.1,2.5c-0.1,0.6-0.1,0.9-0.1,0.9s-0.1-0.3-0.4-0.9c-0.2-0.5-0.6-1.3-1-2.1c-0.4-0.8-1-1.7-1.7-2.6
								c-0.4-0.4-0.8-0.8-1.2-1.2c-0.5-0.4-0.8-0.7-1.4-1c-1.9-1.2-4.3-1.7-6.2-1.6c-0.9,0-1.7,0.1-2.3,0.2
								C226.6,418.1,226.3,418.2,226.3,418.2z"/>
							<path class="st0" d="M209.8,403.3c0,0,0.3-0.2,0.8-0.5c0.5-0.3,1.3-0.6,2.3-0.9c1-0.3,2.3-0.4,3.6-0.2
								c0.7,0.1,1.4,0.2,2.1,0.5c0.7,0.3,1.3,0.7,2,1.1c0.6,0.5,1.1,1,1.6,1.7c0.1,0.2,0.2,0.3,0.3,0.5l0.2,0.4
								c0.2,0.4,0.3,0.7,0.4,1c0.5,1.4,0.5,2.7,0.3,3.7c-0.2,1-0.5,1.8-0.7,2.4c-0.2,0.5-0.4,0.8-0.4,0.8s0-0.3-0.1-0.9
								c0-0.6-0.1-1.4-0.2-2.3c-0.1-0.9-0.4-1.9-0.9-2.8c-0.1-0.2-0.3-0.5-0.4-0.7l-0.3-0.4l-0.2-0.3c-0.3-0.4-0.7-0.8-1.2-1.1
								c-0.9-0.7-1.9-1.2-2.9-1.5c-1-0.3-2.1-0.4-3.1-0.5c-0.9-0.1-1.8-0.1-2.4-0.1C210.2,403.4,209.8,403.3,209.8,403.3z"/>
							<path class="st0" d="M199.3,383.2c0,0,0.1,0,0.3-0.1c0.2,0,0.4-0.2,0.8-0.2c0.7-0.1,1.7-0.2,2.9,0.1c1.2,0.2,2.6,0.8,3.8,1.7
								c1.3,0.9,2.4,2.3,3.1,3.9c0.3,0.8,0.5,1.6,0.7,2.5c0.1,0.8,0.1,1.6,0.1,2.4c-0.1,1.5-0.5,2.9-1,4c-0.4,1.1-0.9,1.9-1.3,2.5
								c-0.4,0.6-0.6,0.9-0.6,0.9s0.2-1.5,0.5-3.8c0.1-1.1,0.2-2.4,0.1-3.7c0-0.6-0.1-1.3-0.2-1.9c-0.1-0.6-0.3-1.3-0.6-1.9
								c-0.3-0.6-0.6-1.2-0.9-1.7c-0.4-0.5-0.8-1-1.2-1.5c-0.9-0.9-1.9-1.6-2.9-2.1c-0.9-0.5-1.8-0.8-2.4-0.9
								C199.7,383.2,199.3,383.2,199.3,383.2z"/>
							<path class="st0" d="M189.9,361.8c0,0,0.4-0.1,1-0.2c0.7-0.1,1.6-0.2,2.8-0.1c1.2,0.1,2.6,0.5,4,1.2c0.7,0.4,1.4,0.8,2,1.3
								c0.3,0.3,0.6,0.5,0.9,0.8c0.2,0.2,0.6,0.6,0.8,0.9c1,1.4,1.7,3,1.8,4.5c0.2,1.6,0,3-0.4,4.2c-0.4,1.1-0.9,2-1.2,2.6
								c-0.4,0.6-0.6,0.9-0.6,0.9s0.1-0.4,0.2-1c0.1-0.7,0.2-1.6,0.3-2.7c0-1.1,0-2.3-0.4-3.5c-0.3-1.2-0.9-2.4-1.7-3.4
								c-0.2-0.2-0.4-0.5-0.6-0.8c-0.2-0.2-0.5-0.5-0.7-0.7c-0.5-0.4-1-0.9-1.5-1.2c-1-0.7-2.2-1.3-3.1-1.7c-1-0.4-1.9-0.7-2.5-0.8
								C190.3,361.9,189.9,361.8,189.9,361.8z"/>
							<path class="st0" d="M186.1,327.6c0,0,0.1,0,0.4,0.1c0.2,0.1,0.6,0.1,1,0.3c0.9,0.3,2.1,0.8,3.3,1.8c1.3,1,2.6,2.4,3.5,4.2
								c0.5,0.9,1,1.8,1.3,2.8c0.3,1,0.6,2.1,0.8,3.1c0.4,2.1,0.4,4.3,0.1,6.3c-0.3,2-0.9,3.8-1.5,5.2c-0.7,1.4-1.4,2.5-1.9,3.2
								c-0.5,0.7-0.9,1.1-0.9,1.1s0.2-0.5,0.4-1.3c0.3-0.8,0.6-2,1-3.5c0.3-1.4,0.6-3.1,0.7-4.9c0.1-0.9,0-1.8,0-2.8
								c0-0.9-0.2-1.9-0.3-2.8c-0.2-1-0.4-1.9-0.6-2.8c-0.3-0.9-0.6-1.8-1-2.6c-0.7-1.6-1.6-3-2.6-4.1c-0.9-1.1-1.9-1.9-2.6-2.5
								C186.5,327.9,186.1,327.6,186.1,327.6z"/>
							<path class="st0" d="M179.4,293.5c0,0,0.5,0.2,1.4,0.8c0.9,0.5,2,1.4,3.2,2.7c1.2,1.3,2.4,3,3.4,5c0.5,1,0.9,2.1,1.2,3.2
								c0.2,0.6,0.3,1.1,0.4,1.8c0.1,0.6,0.2,1.1,0.2,1.7c0.1,1.2,0,2.4-0.1,3.6c-0.1,1.2-0.4,2.3-0.7,3.4c-0.6,2.1-1.6,4-2.6,5.4
								c-0.5,0.7-1.1,1.3-1.6,1.8c-0.5,0.5-1,0.9-1.4,1.2c-0.4,0.3-0.8,0.5-1,0.6c-0.2,0.1-0.4,0.2-0.4,0.2s0.4-0.4,1-1.2
								c0.6-0.8,1.4-1.9,2.1-3.4c0.4-0.7,0.7-1.6,1-2.4c0.3-0.9,0.5-1.8,0.7-2.8c0.4-2,0.6-4.1,0.4-6.2c0-0.5-0.1-1.1-0.2-1.6
								c-0.1-0.5-0.2-1-0.3-1.5c-0.2-1-0.5-2-0.9-3c-0.7-1.9-1.6-3.6-2.5-4.9c-0.9-1.4-1.8-2.5-2.4-3.2
								C179.8,293.9,179.4,293.5,179.4,293.5z"/>
							<path class="st0" d="M171,259.9c0,0,0.6,0,1.7,0c1.1,0.1,2.6,0.2,4.4,0.8c1.8,0.5,3.9,1.6,5.7,3.3c0.9,0.9,1.7,1.8,2.4,3
								c0.3,0.5,0.6,1.3,0.8,1.8c0.2,0.7,0.4,1.3,0.5,2c0.4,2.7-0.1,5.3-1,7.6c-0.4,1.1-1,2.1-1.6,3c-0.6,0.9-1.2,1.7-1.8,2.4
								c-1.2,1.4-2.4,2.4-3.3,3c-0.9,0.6-1.4,0.9-1.4,0.9s0.4-0.5,1.1-1.3c0.7-0.8,1.6-2,2.5-3.5c0.4-0.8,0.9-1.6,1.3-2.5
								c0.4-0.9,0.8-1.9,1.1-2.9c0.3-1,0.5-2.1,0.7-3.2c0.1-1.1,0.1-2.2-0.1-3.2c-0.1-0.5-0.2-1.1-0.3-1.5c-0.2-0.6-0.4-1-0.6-1.5
								c-0.5-0.9-1.1-1.8-1.8-2.6c-1.4-1.5-3.1-2.7-4.6-3.5c-1.6-0.8-3-1.3-4-1.6C171.6,260,171,259.9,171,259.9z"/>
						</g>

						<radialGradient id="SVGID_25_" cx="248.5699" cy="-2606.6909" r="12.1124" gradientTransform="matrix(2.0181 0 0 -1.545 -331.3144 -3660.928)" gradientUnits="userSpaceOnUse">
							<stop  offset="0" style="stop-color:#CEDDDC"/>
							<stop  offset="1" style="stop-color:#FDFDFD"/>
						</radialGradient>
						<path class="st26" d="M186,354.8c-0.9,1.6-2.2,3-4.3,4.8c-3.3,2.7-6.3,4.3-9.1,4.7c-0.1,0-0.2,0-0.3,0c-0.3,0-0.7,0.1-1,0.1
							c-2.7,0-5.2-1.2-6.5-3.1c-1.2-1.7-1.4-3.3-1.4-5.3c0-2.7-1.1-5.2-3.1-6.8l0,0c-0.1-0.1-0.4-0.4-0.6-1.1
							c-0.7-1.7-0.9-3.6-0.7-5.5c0.5-3.6,2.8-7,6.3-9.1c2.3-1.4,5.2-2.3,8.2-2.7c0.8-0.1,1.5-0.1,2.3-0.1c2.4,0,4.7,0.4,6.7,1.3
							c1.7,0.7,3.1,1.9,4.1,3.2c1.3,1.9,1.8,4.5,2.1,6.8c0.3,2.6,0.4,4.5,0.2,6.2C188.3,350.4,187.3,352.4,186,354.8z"/>

						<radialGradient id="SVGID_26_" cx="241.1844" cy="-3822.5896" r="10.9853" gradientTransform="matrix(2.0181 0 0 -2.0181 -331.3144 -7417.3345)" gradientUnits="userSpaceOnUse">
							<stop  offset="0" style="stop-color:#CDD2D2"/>
							<stop  offset="1" style="stop-color:#FDFDFD"/>
						</radialGradient>
						<path class="st27" d="M172.2,286.3c-3.8,3.3-9,5.1-14.8,5.1c-0.3,0-0.6,0-0.8,0c-3.4-0.1-5.9-0.9-7.3-2.5
							c-0.8-0.9-1.4-2.1-2-3.4c-0.6-1.2-0.8-2.2-0.8-3.1c0-1.2,0.3-4,0.6-4.7c0.5-1.3,0.9-2.2,1.4-3.2c0.5-1,1.1-2.2,1.7-3.9
							c0.6-1.7,1.3-3.7,2.4-4.8c1.7-1.6,4.6-2,7.7-2.2c1.8-0.1,3.4-0.2,4.9-0.2c1.2,0,2.3,0.1,3.3,0.2c2.7,0.3,5,1.2,6.6,2.6
							c2.1,1.7,3.6,3.2,3.5,6.5C178.5,277.8,176.2,282.9,172.2,286.3z"/>

						<radialGradient id="SVGID_27_" cx="241.7975" cy="-2525.3831" r="9.7818" gradientTransform="matrix(2.0181 0 0 -1.5291 -331.3144 -3534.3257)" gradientUnits="userSpaceOnUse">
							<stop  offset="0" style="stop-color:#CEDDDC"/>
							<stop  offset="1" style="stop-color:#FDFDFD"/>
						</radialGradient>
						<path class="st28" d="M174.4,323L174.4,323c-2,0.9-4.3,1.6-6.6,2.2l-0.8,0.2c-2.6,0.7-5.3,1.5-7.7,1.5c-0.4,0-0.8,0-1.2-0.1
							c-2.6-0.3-5.5-1.6-6.4-3.9c-0.3-0.8,0-2.6,0.2-3.9c0.1-0.7,0.2-1.5,0.3-2.2c0.2-1.9,0.1-3.9,0-5.8c-0.1-3.8-0.3-7.3,1.4-9.6
							c1.2-1.6,4.5-2.5,7.1-3.3c0.8-0.2,1.6-0.5,2.4-0.7c2.4-0.8,5.2-1.3,7.5-1.3c2,0,2.7,0.4,3.9,1.1l0.2,0.1
							c3.3,2.6,5,5.3,5.7,8.5c0.6,3.1,0.6,6.3-0.1,9.4C179.5,318.8,177.4,321.6,174.4,323z"/>

						<radialGradient id="SVGID_28_" cx="252.9467" cy="-1083.8229" r="9.6792" gradientTransform="matrix(2.0181 0 0 -1.1989 -331.3144 -912.5334)" gradientUnits="userSpaceOnUse">
							<stop  offset="0" style="stop-color:#CEDDDC"/>
							<stop  offset="1" style="stop-color:#FDFDFD"/>
						</radialGradient>
						<path class="st29" d="M194.9,376.3c-0.7,1.6-1.9,3.3-3.4,5c-2.6,2.9-5.3,4.8-8.1,5.8c-1.4,0.5-2.8,0.7-4.2,0.7
							c-1.7,0-3.2-0.4-4.6-1.1c-1.7-0.9-3.1-2.5-3.9-4.2c-0.7-1.8-0.9-3.9-0.3-5.7c0.7-2.3,2.4-4.4,4.8-6c2.1-1.4,4.8-2.4,8.2-3.2
							c1.9-0.4,3.4-0.6,4.8-0.6c1.6,0,2.9,0.2,4,0.7c0.9,0.4,1.6,0.9,2.3,1.6c1.1,1.1,1.5,2.7,1.2,4.3
							C195.5,374.7,195.2,375.5,194.9,376.3z"/>

						<radialGradient id="SVGID_29_" cx="287.6903" cy="-3900.5967" r="8.2382" gradientTransform="matrix(2.0181 0 0 -2.0181 -331.3144 -7417.3345)" gradientUnits="userSpaceOnUse">
							<stop  offset="0" style="stop-color:#CEDDDC"/>
							<stop  offset="1" style="stop-color:#FDFDFD"/>
						</radialGradient>
						<path class="st30" d="M255.9,452l-0.3,0c-2,0-4-0.2-5.5-0.4c-1.5-0.3-3.1-0.7-4.9-1.3l-0.3-0.1c-1.5-0.5-5.2-1.7-5.9-3.1
							c0-0.1-0.1-0.3,0-0.5c0.5-3.1,2.6-6.4,4.6-9.5l0.2-0.3c1.3-2.1,2.6-4,4.6-5.8c1.5-1.3,3.1-1.9,4.6-1.9l0.2,0
							c0.8,0,1.6,0.2,2.3,0.6c0.6,0.3,2.2,2,3.2,4.3c1.4,3.4,2.9,11.1,3,17.2C260,451.8,258.1,452,255.9,452z"/>

						<radialGradient id="SVGID_30_" cx="274.8358" cy="-3383.3391" r="6.1635" gradientTransform="matrix(2.0181 0 0 -1.7915 -331.3144 -5617.6567)" gradientUnits="userSpaceOnUse">
							<stop  offset="0" style="stop-color:#CEDDDC"/>
							<stop  offset="1" style="stop-color:#FDFDFD"/>
						</radialGradient>
						<path class="st31" d="M233.5,445.1c-1.5,0-3.3-0.3-5.3-0.9c-1.8-0.5-3.5-1.2-4.8-1.8c-1.3-0.7-2.6-1.4-4-2.4l-0.2-0.1
							c-1.2-0.8-4.1-2.8-4.3-4.1c0,0,0-0.2,0.1-0.3c1.2-2.6,3.9-4.9,6.5-7.2l0.2-0.2c1.7-1.5,3.3-2.9,5.6-3.9c1-0.5,2.1-0.7,3-0.7
							c0.5,0,1,0.1,1.5,0.2l0.1,0c0.7,0.2,1.3,0.6,1.8,1.1c0.5,0.4,1.4,2.3,1.6,4.5C235.7,432.6,235.1,439.7,233.5,445.1
							L233.5,445.1z"/>

						<radialGradient id="SVGID_31_" cx="265.4238" cy="-3889.7126" r="7.5678" gradientTransform="matrix(2.0181 0 0 -2.0181 -331.3144 -7417.3345)" gradientUnits="userSpaceOnUse">
							<stop  offset="0" style="stop-color:#CEDDDC"/>
							<stop  offset="1" style="stop-color:#FDFDFD"/>
						</radialGradient>
						<path class="st32" d="M213,427.4c-0.5,1.3-1.2,2.7-2.1,3.3c-0.6,0.4-1.3,0.5-2.3,0.5c-0.4,0-0.9,0-1.4-0.1
							c-3.7-0.5-7.3-2.7-9.2-5.6c-1-1.6-2-4.1-1.1-7.2c0.7-2.5,2.6-4.7,5-6c2.5-1.3,5.2-2.3,7.9-3c0.9-0.2,2.1-0.5,3.3-0.5
							c0.2,0,0.4,0,0.6,0c1,0.1,1.9,0.5,2.3,1c0.9,1.1,0.7,3.2,0.5,4.7C215.8,419,214.7,423.3,213,427.4z"/>

						<radialGradient id="SVGID_32_" cx="258.4016" cy="-1787.9514" r="7.5113" gradientTransform="matrix(2.0181 0 0 -1.3325 -331.3144 -1973.4298)" gradientUnits="userSpaceOnUse">
							<stop  offset="0" style="stop-color:#CEDDDC"/>
							<stop  offset="1" style="stop-color:#FDFDFD"/>
						</radialGradient>
						<path class="st33" d="M193.3,408.7c-0.7,0.1-1.4,0.2-2,0.2c-2.7,0-5.3-1.1-6.9-2.9c-1.2-1.4-1.9-3.1-2-4.9
							c-0.1-1.8,0.4-3.6,1.5-5c1.2-1.7,3.1-2.9,4.9-4c1.6-1,3.7-2.2,5.9-2.8c1-0.3,2-0.4,3-0.4c0.9,0,1.8,0.1,2.5,0.4
							c0.1,0,0.2,0.1,0.3,0.1c1.6,0.7,2.7,2.3,2.8,4.2c0.1,3.3-0.6,6.4-2,8.9C199.5,405.7,196.5,408,193.3,408.7z"/>
					</g>
				</g>
			</g>
		</g>
	</g>
	<g>
		<g>
			<g>
				<path class="st0" d="M386.9,212.3c-0.8-1.8-1.6-3.5-3-4.9c-1.5-1.6-3.5-2.8-5.9-3.5c0.8-0.6,1.5-1.2,2-2
					c2.9-3.8,2.7-8.6,2.5-13.1c-0.1-1.7-0.1-3.5,0-5.1c0-0.5,0.1-1.1,0.2-1.8c0.3-2,0.7-4.6-0.1-6.8c-1.8-4.8-6.9-7-11-7.5
					c0,0-0.1,0-0.1,0c2.3-2.7,3.8-5.9,4.3-9.2c0.4-2.8,0-5.7-1.1-8.3c-0.5-1.4-1.2-2.4-2-3.1c0,0-0.2-0.2-0.2-0.2
					c-0.7-0.6-1.1-1.6-1.1-2.6c0-2.5-0.3-5.4-2.4-8.5c-1.8-2.6-4.7-4.5-8.1-5.1c1.5-1.7,2.6-3.6,3.2-5.6c0.9-3.1,0.7-6.5-0.5-9.5
					c-1.2-3-3.6-5.5-6.4-7c-2.1-1.1-4.5-1.7-7-1.7c1.4-2.3,2.2-5.1,2-7.8c-0.1-3.1-1.3-6-3.3-8.3c-2.6-3-6.8-4.9-11.1-4.9
					c-0.3,0-0.7,0-1,0c0.3-0.7,0.6-1.5,0.9-2.3c1.2-4,0.5-8.2-1.8-11.8c-2.8-4.3-7.9-7.4-13.2-8.1c-0.7-0.1-1.4-0.1-2.1-0.1
					c-0.3,0-0.6,0-0.9,0c-0.7-3.6-4.4-6.2-6.7-7.7l-0.2-0.1c-1.6-1.1-3.2-2-4.7-2.8c-0.1,0-0.2-0.1-0.2-0.1c-1.4-0.6-3.3-1.4-5.4-2
					c-2.6-0.8-4.8-1.2-6.9-1.2c-0.1,0-0.2,0-0.4,0c-0.2,0-0.5,0-0.7,0.1c-2-2.8-5.9-4.1-8.6-4.9l-0.3-0.1c-2-0.7-3.9-1.2-5.7-1.5
					c-0.1,0-0.2,0-0.2,0c-1.7-0.2-3.9-0.4-6.2-0.4l-0.3,0c-2.9,0-5.3,0.3-7.5,1c-0.4,0.1-0.9,0.3-1.2,0.5c-0.4-0.2-0.8-0.4-1.2-0.5
					c-2.1-0.7-4.6-1-7.5-1l-0.3,0c-2.3,0-4.5,0.2-6.2,0.4c-0.1,0-0.2,0-0.2,0c-1.8,0.3-3.6,0.8-5.7,1.5l-0.3,0.1
					c-2.7,0.9-6.6,2.1-8.6,4.9c-0.2,0-0.5,0-0.7-0.1c-0.1,0-0.2,0-0.4,0c-2.1,0-4.4,0.4-6.9,1.2c-2.1,0.6-4,1.4-5.4,2
					c-0.1,0-0.1,0.1-0.2,0.1c-1.5,0.8-3,1.7-4.7,2.8l-0.2,0.1c-2.4,1.6-6,4.1-6.7,7.7c-0.3,0-0.6,0-0.9,0c-0.7,0-1.4,0-2.1,0.1
					c-5.3,0.7-10.3,3.8-13.2,8.1c-2.3,3.6-3,7.8-1.8,11.8c0.2,0.8,0.5,1.5,0.9,2.3c-0.3,0-0.7,0-1,0c-4.3,0-8.5,1.8-11.1,4.9
					c-2,2.3-3.2,5.3-3.3,8.3c-0.1,2.7,0.6,5.5,2,7.8c-2.5,0-4.9,0.6-7,1.7c-2.8,1.5-5.2,4.1-6.4,7c-1.2,3-1.4,6.4-0.5,9.5
					c0.6,2,1.7,3.9,3.2,5.6c-3.3,0.7-6.2,2.5-8.1,5.1c-2.1,3.1-2.4,6-2.4,8.5c0,1-0.4,2-1.1,2.6c0,0-0.2,0.1-0.2,0.2
					c-0.8,0.8-1.5,1.8-2,3.1c-1.1,2.6-1.4,5.5-1.1,8.3c0.4,3.4,2,6.6,4.3,9.2c0,0-0.1,0-0.1,0c-4.1,0.5-9.2,2.7-11,7.5
					c-0.8,2.2-0.4,4.7-0.1,6.8c0.1,0.6,0.2,1.3,0.2,1.8c0.1,1.6,0.1,3.4,0,5.1c-0.2,4.6-0.4,9.3,2.5,13.1c0.6,0.8,1.3,1.4,2,2
					c-2.4,0.7-4.4,1.9-5.9,3.5c-1.4,1.5-2.2,3.2-3,4.9c-0.9,2-1.3,3.7-1.3,5.4c0,1.2,0.3,4.9,0.9,6.5c0.6,1.7,1.1,2.8,1.6,3.8
					c0.5,1,0.9,1.9,1.4,3.2c0.7,2.2,1.7,4.9,3.8,7c3,3,7.2,3.5,11.3,3.8c1.9,0.1,3.6,0.2,5.3,0.2h1.3c20,0,39.5-5.4,57-15
					c10.4-5.7,25-9.2,41.2-9.2c16.2,0,30.8,3.5,41.2,9.2c17.5,9.6,37,15,57,15h1.3c1.7,0,3.4-0.1,5.3-0.2c4.1-0.3,8.3-0.8,11.3-3.8
					c2.1-2.1,3-4.8,3.8-7c0.5-1.4,0.9-2.3,1.4-3.2c0.5-1.1,1.1-2.1,1.6-3.8c0.6-1.6,0.9-5.3,0.9-6.5
					C388.3,216,387.8,214.3,386.9,212.3z"/>
				<path class="st1" d="M386.9,212.3c-0.8-1.8-1.6-3.5-3-4.9c-1.5-1.6-3.5-2.8-5.9-3.5c0.8-0.6,1.5-1.2,2-2
					c2.9-3.8,2.7-8.6,2.5-13.1c-0.1-1.7-0.1-3.5,0-5.1c0-0.5,0.1-1.1,0.2-1.8c0.3-2,0.7-4.6-0.1-6.8c-1.8-4.8-6.9-7-11-7.5
					c0,0-0.1,0-0.1,0c2.3-2.7,3.8-5.9,4.3-9.2c0.4-2.8,0-5.7-1.1-8.3c-0.5-1.4-1.2-2.4-2-3.1c0,0-0.2-0.2-0.2-0.2
					c-0.7-0.6-1.1-1.6-1.1-2.6c0-2.5-0.3-5.4-2.4-8.5c-1.8-2.6-4.7-4.5-8.1-5.1c1.5-1.7,2.6-3.6,3.2-5.6c0.9-3.1,0.7-6.5-0.5-9.5
					c-1.2-3-3.6-5.5-6.4-7c-2.1-1.1-4.5-1.7-7-1.7c1.4-2.3,2.2-5.1,2-7.8c-0.1-3.1-1.3-6-3.3-8.3c-2.6-3-6.8-4.9-11.1-4.9
					c-0.3,0-0.7,0-1,0c0.3-0.7,0.6-1.5,0.9-2.3c1.2-4,0.5-8.2-1.8-11.8c-2.8-4.3-7.9-7.4-13.2-8.1c-0.7-0.1-1.4-0.1-2.1-0.1
					c-0.3,0-0.6,0-0.9,0c-0.7-3.6-4.4-6.2-6.7-7.7l-0.2-0.1c-1.6-1.1-3.2-2-4.7-2.8c-0.1,0-0.2-0.1-0.2-0.1c-1.4-0.6-3.3-1.4-5.4-2
					c-2.6-0.8-4.8-1.2-6.9-1.2c-0.1,0-0.2,0-0.4,0c-0.2,0-0.5,0-0.7,0.1c-2-2.8-5.9-4.1-8.6-4.9l-0.3-0.1c-2-0.7-3.9-1.2-5.7-1.5
					c-0.1,0-0.2,0-0.2,0c-1.7-0.2-3.9-0.4-6.2-0.4l-0.3,0c-2.9,0-5.3,0.3-7.5,1c-0.4,0.1-0.9,0.3-1.2,0.5c-0.4-0.2-0.8-0.4-1.2-0.5
					c-2.1-0.7-4.6-1-7.5-1l-0.3,0c-2.3,0-4.5,0.2-6.2,0.4c-0.1,0-0.2,0-0.2,0c-1.8,0.3-3.6,0.8-5.7,1.5l-0.3,0.1
					c-2.7,0.9-6.6,2.1-8.6,4.9c-0.2,0-0.5,0-0.7-0.1c-0.1,0-0.2,0-0.4,0c-2.1,0-4.4,0.4-6.9,1.2c-2.1,0.6-4,1.4-5.4,2
					c-0.1,0-0.1,0.1-0.2,0.1c-1.5,0.8-3,1.7-4.7,2.8l-0.2,0.1c-2.4,1.6-6,4.1-6.7,7.7c-0.3,0-0.6,0-0.9,0c-0.7,0-1.4,0-2.1,0.1
					c-5.3,0.7-10.3,3.8-13.2,8.1c-2.3,3.6-3,7.8-1.8,11.8c0.2,0.8,0.5,1.5,0.9,2.3c-0.3,0-0.7,0-1,0c-4.3,0-8.5,1.8-11.1,4.9
					c-2,2.3-3.2,5.3-3.3,8.3c-0.1,2.7,0.6,5.5,2,7.8c-2.5,0-4.9,0.6-7,1.7c-2.8,1.5-5.2,4.1-6.4,7c-1.2,3-1.4,6.4-0.5,9.5
					c0.6,2,1.7,3.9,3.2,5.6c-3.3,0.7-6.2,2.5-8.1,5.1c-2.1,3.1-2.4,6-2.4,8.5c0,1-0.4,2-1.1,2.6c0,0-0.2,0.1-0.2,0.2
					c-0.8,0.8-1.5,1.8-2,3.1c-1.1,2.6-1.4,5.5-1.1,8.3c0.4,3.4,2,6.6,4.3,9.2c0,0-0.1,0-0.1,0c-4.1,0.5-9.2,2.7-11,7.5
					c-0.8,2.2-0.4,4.7-0.1,6.8c0.1,0.6,0.2,1.3,0.2,1.8c0.1,1.6,0.1,3.4,0,5.1c-0.2,4.6-0.4,9.3,2.5,13.1c0.6,0.8,1.3,1.4,2,2
					c-2.4,0.7-4.4,1.9-5.9,3.5c-1.4,1.5-2.2,3.2-3,4.9c-0.9,2-1.3,3.7-1.3,5.4c0,1.2,0.3,4.9,0.9,6.5c0.6,1.7,1.1,2.8,1.6,3.8
					c0.5,1,0.9,1.9,1.4,3.2c0.7,2.2,1.7,4.9,3.8,7c3,3,7.2,3.5,11.3,3.8c1.9,0.1,3.6,0.2,5.3,0.2h1.3c0.9,0,1.8,0,2.7,0
					c1.8-81.2,43.9-146.1,95.5-146.1c51.6,0,93.7,64.9,95.5,146.1c0.9,0,1.8,0,2.7,0h1.3c1.7,0,3.4-0.1,5.3-0.2
					c4.1-0.3,8.3-0.8,11.3-3.8c2.1-2.1,3-4.8,3.8-7c0.5-1.4,0.9-2.3,1.4-3.2c0.5-1.1,1.1-2.1,1.6-3.8c0.6-1.6,0.9-5.3,0.9-6.5
					C388.3,216,387.8,214.3,386.9,212.3z"/>
				<g>
					<g>
						<linearGradient id="SVGID_33_" gradientUnits="userSpaceOnUse" x1="255.0996" y1="76.2711" x2="249.4856" y2="46.6699">
							<stop  offset="0" style="stop-color:#CEDDDC"/>
							<stop  offset="5.772644e-02" style="stop-color:#D5E1E1"/>
							<stop  offset="0.234" style="stop-color:#E7EEEE"/>
							<stop  offset="0.4299" style="stop-color:#F3F6F7"/>
							<stop  offset="0.6587" style="stop-color:#FBFBFC"/>
							<stop  offset="1" style="stop-color:#FDFDFD"/>
						</linearGradient>
						<path class="st34" d="M253,72.9c-2.1,0-4.1-0.8-6-2.4c-2.3-2-3.7-4.1-5-6.2l-0.2-0.3c-2.1-3.3-4.3-6.8-4.9-10.3
							c-0.1-0.4-0.1-1.1,0.2-1.7c1.1-2.1,4.8-3.3,7.1-4.1l0.3-0.1c1.9-0.6,3.6-1.1,5.2-1.4c1.6-0.2,3.7-0.4,5.8-0.4
							c2.6,0,4.8,0.3,6.7,0.8c0.3,0.1,1.1,0.4,1.3,1c0.1,0.3,0.1,0.6,0.1,1c-0.1,6.5-1.7,14.3-3.2,17.9c-1,2.5-2.9,4.7-4.1,5.3
							c-1,0.5-2,0.8-3.2,0.8C253.1,72.9,253.1,72.9,253,72.9z"/>
						<linearGradient id="SVGID_34_" gradientUnits="userSpaceOnUse" x1="225.1196" y1="79.4482" x2="225.2472" y2="58.7784">
							<stop  offset="0" style="stop-color:#CEDDDC"/>
							<stop  offset="1" style="stop-color:#FDFDFD"/>
						</linearGradient>
						<path class="st35" d="M232.4,78.4c-1.8,0.6-3.9,0.3-5.9-0.6c-2.6-1.2-4.3-2.7-6.1-4.2l-0.2-0.2c-2.7-2.4-5.6-4.9-7-7.9
							c-0.2-0.4-0.4-1-0.2-1.6c0.4-2.1,3.4-4.2,5.2-5.4l0.2-0.1c1.5-1,2.9-1.9,4.3-2.6c1.4-0.6,3.1-1.3,5-1.9c2.3-0.7,4.4-1,6.2-1
							c0.3,0,1.1,0.1,1.4,0.5c0.2,0.2,0.2,0.5,0.3,0.9c1.6,5.8,2.2,13.1,1.9,16.7c-0.3,2.5-1.3,4.9-2.3,5.8
							c-0.7,0.7-1.6,1.2-2.6,1.5C232.5,78.4,232.4,78.4,232.4,78.4z"/>
						<linearGradient id="SVGID_35_" gradientUnits="userSpaceOnUse" x1="205.4921" y1="93.6413" x2="207.9163" y2="70.2921">
							<stop  offset="0" style="stop-color:#CEDDDC"/>
							<stop  offset="1" style="stop-color:#FDFDFD"/>
						</linearGradient>
						<path class="st36" d="M213,93.3c-1.4,0-2.7-0.3-3.8-0.6c-2.9-0.7-5.7-1.8-8.3-3.2c-2.9-1.5-5.1-4.1-6-7.2
							c-2.3-7.8,4.8-14.4,12-15.4c1.7-0.2,3.5-0.2,5,0.7c1.4,0.9,2.3,2.6,3,4.3c1.8,4.3,3,8.7,3.6,13.3c0.3,2.1,0.4,4.6-1,6.3
							c-0.8,1-2.1,1.6-3.7,1.8C213.5,93.3,213.3,93.3,213,93.3z"/>
						<linearGradient id="SVGID_36_" gradientUnits="userSpaceOnUse" x1="193.0125" y1="113.831" x2="192.7573" y2="91.5026">
							<stop  offset="0" style="stop-color:#CEDDDC"/>
							<stop  offset="1" style="stop-color:#FDFDFD"/>
						</linearGradient>
						<path class="st37" d="M197.7,113.3c-1.1,0-2.3-0.2-3.5-0.5c-2.4-0.7-4.7-2-6.5-3c-2-1.2-4.1-2.6-5.5-4.6
							c-1.3-1.8-2-4.1-1.9-6.3c0.1-2.2,1-4.4,2.5-6.1c2-2.3,5.1-3.6,8.4-3.6c0.8,0,1.7,0.1,2.5,0.3c3.8,0.8,7.3,3.5,9.3,7.2
							c1.6,2.9,2.4,6.3,2.3,9.9c-0.1,2.7-1.6,5-4,6c-0.1,0.1-0.3,0.1-0.4,0.2C200,113.1,198.9,113.3,197.7,113.3z"/>
						<linearGradient id="SVGID_37_" gradientUnits="userSpaceOnUse" x1="183.2239" y1="134.79" x2="182.4587" y2="109.6666">
							<stop  offset="0" style="stop-color:#CEDDDC"/>
							<stop  offset="1" style="stop-color:#FDFDFD"/>
						</linearGradient>
						<path class="st38" d="M188.1,135c-1.5,0-3.3-0.2-5.3-0.7c-3.7-0.8-6.5-1.9-8.8-3.5c-2.8-1.8-4.8-4.4-5.6-7.1
							c-0.7-2.3-0.6-4.9,0.4-7.1c0.9-2.2,2.7-4.1,4.8-5.3c1.6-0.9,3.5-1.3,5.5-1.3c1.6,0,3.3,0.3,4.9,0.9c3.1,1.1,6.1,3.3,8.9,6.4
							c1.7,1.9,3,3.7,3.8,5.6c0.4,1,0.7,2,0.9,3c0.5,2.3-0.2,4.6-1.8,6.2c-0.9,0.9-1.8,1.5-2.9,2C191.5,134.7,190,135,188.1,135z"/>
						<linearGradient id="SVGID_38_" gradientUnits="userSpaceOnUse" x1="173.2528" y1="170.4404" x2="174.146" y2="141.4772">
							<stop  offset="0" style="stop-color:#CEDDDC"/>
							<stop  offset="1" style="stop-color:#FDFDFD"/>
						</linearGradient>
						<path class="st39" d="M173,171.4c-3.3-0.4-6.5-1.4-9-2.9c-4-2.4-6.7-6.4-7.2-10.6c-0.3-2.2,0-4.5,0.8-6.5
							c0.3-0.9,0.7-1.5,1.1-1.9l0.1-0.1c1.5-1.3,2.4-3.2,2.4-5.3c0-2,0.2-4.2,1.8-6.5c1.9-2.8,5.6-4.3,9.5-3.9c0.1,0,0.2,0,0.4,0
							c3.2,0.5,6.5,2.1,10.1,5.1c2.3,1.9,3.8,3.6,4.8,5.4c1.4,2.6,2.5,4.7,2.8,7.4c0.2,1.9,0.1,4-0.2,6.7c-0.3,2.5-0.9,5.4-2.5,7.7
							c-1.2,1.7-2.9,3.1-4.9,3.9C180.2,171.3,176.6,171.8,173,171.4z"/>
						<linearGradient id="SVGID_39_" gradientUnits="userSpaceOnUse" x1="164.7532" y1="205.0644" x2="167.0499" y2="171.5079">
							<stop  offset="0" style="stop-color:#CEDDDC"/>
							<stop  offset="1" style="stop-color:#FDFDFD"/>
						</linearGradient>
						<path class="st40" d="M175.9,204.4c3.2-2.6,5.7-5.6,6.5-9.9c0.7-3.6,0.6-7.1-0.1-10.2c-0.9-4-3.4-7.4-7-9.1c0,0,0,0-0.1,0
							c-2.1-1-4.4-1.7-6.8-2.3l-0.8-0.2c-2.7-0.8-5.6-1.6-8.3-1.6c-0.5,0-1,0-1.4,0.1c-3,0.3-6.8,1.9-8.1,5.2
							c-0.5,1.3-0.2,3.2,0.1,5c0.1,0.7,0.2,1.4,0.3,2c0.2,1.8,0.1,3.7,0,5.6c-0.2,4.1-0.3,8,1.8,10.9c1.6,2.1,5.1,3.1,8.2,4
							c0.8,0.2,1.6,0.5,2.4,0.7c2.4,0.8,5.4,1.4,8.1,1.4S174.4,205.2,175.9,204.4z"/>
						<g>
							<path class="st0" d="M245.7,74.3c0,0,0.3,0.1,0.9,0.4c0.6,0.2,1.4,0.6,2.3,0.9c1,0.3,2.1,0.5,3.2,0.6c0.6,0.1,1.1,0,1.8,0
								c0.6,0,1.2-0.1,1.8-0.3c0.6-0.1,1.2-0.3,1.7-0.6c0.5-0.3,1-0.5,1.5-0.9c0.9-0.7,1.8-1.5,2.5-2.3c1.4-1.5,2.3-2.7,2.3-2.7
								s0,0.4-0.2,1c-0.1,0.6-0.4,1.5-0.9,2.5c-0.5,1-1.2,2.1-2.2,3.1c-0.5,0.5-1.2,1-1.9,1.4c-0.7,0.3-1.4,0.6-2.2,0.8
								c-0.8,0.2-1.5,0.3-2.3,0.3c-0.7,0-1.6-0.1-2.2-0.2c-1.4-0.3-2.6-0.9-3.6-1.5c-0.9-0.6-1.6-1.3-2-1.8
								C245.9,74.6,245.7,74.3,245.7,74.3z"/>
							<path class="st0" d="M226.3,81.9c0,0,0.3,0.1,0.9,0.2c0.6,0.1,1.4,0.2,2.3,0.2c1.8,0,4.2-0.4,6.2-1.6c0.6-0.3,0.9-0.6,1.4-1
								c0.4-0.4,0.8-0.8,1.2-1.2c0.7-0.8,1.3-1.7,1.7-2.6c0.4-0.8,0.8-1.6,1-2.1c0.2-0.5,0.4-0.9,0.4-0.9s0.1,0.3,0.1,0.9
								c0.1,0.6,0.1,1.5-0.1,2.5c-0.2,1-0.5,2.3-1.3,3.4c-0.4,0.6-0.8,1.2-1.3,1.7c-0.3,0.3-0.5,0.5-0.8,0.7
								c-0.3,0.2-0.6,0.5-0.9,0.6c-1.3,0.8-2.7,1.2-4.1,1.3c-1.4,0.1-2.6-0.1-3.6-0.4c-1-0.3-1.8-0.8-2.3-1.2
								C226.5,82.2,226.3,81.9,226.3,81.9z"/>
							<path class="st0" d="M209.8,96.8c0,0,0.3,0,0.9,0c0.6,0,1.4,0,2.4-0.1c0.9-0.1,2-0.2,3.1-0.5c1-0.3,2.1-0.8,2.9-1.5
								c0.4-0.3,0.8-0.7,1.2-1.1l0.2-0.3l0.3-0.4c0.1-0.2,0.3-0.4,0.4-0.7c0.5-0.9,0.7-1.9,0.9-2.8c0.1-0.9,0.2-1.8,0.2-2.3
								c0.1-0.6,0.1-0.9,0.1-0.9s0.2,0.3,0.4,0.8c0.2,0.5,0.6,1.3,0.7,2.4c0.2,1,0.2,2.4-0.3,3.7c-0.1,0.3-0.3,0.7-0.4,1l-0.2,0.4
								c-0.1,0.2-0.2,0.3-0.3,0.5c-0.4,0.6-1,1.2-1.6,1.7c-0.6,0.5-1.3,0.8-2,1.1c-0.7,0.3-1.4,0.4-2.1,0.5c-1.4,0.2-2.6,0-3.6-0.2
								c-1-0.2-1.8-0.6-2.3-0.9C210.1,97,209.8,96.8,209.8,96.8z"/>
							<path class="st0" d="M199.3,116.9c0,0,0.4-0.1,1-0.2c0.6-0.1,1.5-0.5,2.4-0.9c0.9-0.5,1.9-1.2,2.9-2.1
								c0.5-0.4,0.9-0.9,1.2-1.5c0.4-0.5,0.7-1.1,0.9-1.7c0.3-0.6,0.5-1.3,0.6-1.9c0.1-0.6,0.2-1.3,0.2-1.9c0.1-1.3,0-2.6-0.1-3.7
								c-0.3-2.3-0.5-3.8-0.5-3.8s0.2,0.3,0.6,0.9c0.4,0.6,0.9,1.4,1.3,2.5c0.4,1.1,0.9,2.4,1,4c0,0.8,0.1,1.6-0.1,2.4
								c-0.1,0.9-0.3,1.6-0.7,2.5c-0.7,1.6-1.8,2.9-3.1,3.9c-1.3,1-2.6,1.5-3.8,1.7c-1.2,0.2-2.2,0.2-2.9,0.1
								c-0.3,0-0.6-0.1-0.8-0.2C199.4,117,199.3,116.9,199.3,116.9z"/>
							<path class="st0" d="M189.9,138.3c0,0,0.4-0.1,1-0.3c0.6-0.2,1.5-0.4,2.5-0.8c1-0.4,2.1-0.9,3.1-1.7c0.5-0.4,1-0.8,1.5-1.2
								c0.2-0.2,0.5-0.5,0.7-0.7c0.3-0.3,0.5-0.5,0.6-0.8c0.8-1,1.3-2.2,1.7-3.4c0.3-1.2,0.4-2.4,0.4-3.5c-0.1-1.1-0.2-2-0.3-2.7
								c-0.1-0.7-0.2-1-0.2-1s0.3,0.3,0.6,0.9c0.4,0.6,0.8,1.4,1.2,2.6c0.4,1.1,0.6,2.6,0.4,4.2c-0.2,1.6-0.8,3.2-1.8,4.5
								c-0.3,0.4-0.6,0.7-0.8,0.9c-0.3,0.3-0.6,0.6-0.9,0.8c-0.6,0.5-1.3,0.9-2,1.3c-1.4,0.7-2.8,1-4,1.2c-1.2,0.1-2.2,0-2.8-0.1
								C190.3,138.4,189.9,138.3,189.9,138.3z"/>
							<path class="st0" d="M186.1,172.5c0,0,0.4-0.3,1.1-0.8c0.7-0.5,1.6-1.3,2.6-2.5c0.9-1.1,1.8-2.5,2.6-4.1
								c0.4-0.8,0.7-1.7,1-2.6c0.3-0.9,0.5-1.7,0.6-2.8c0.2-0.9,0.3-1.9,0.3-2.8c0-0.9,0.1-1.9,0-2.8c-0.1-1.8-0.4-3.5-0.7-4.9
								c-0.3-1.4-0.7-2.6-1-3.5c-0.3-0.8-0.4-1.3-0.4-1.3s0.3,0.4,0.9,1.1c0.5,0.7,1.3,1.8,1.9,3.2c0.7,1.4,1.3,3.2,1.5,5.2
								c0.3,2,0.2,4.1-0.1,6.3c-0.2,1-0.5,2.1-0.8,3.1c-0.3,1-0.8,1.9-1.3,2.8c-1,1.8-2.3,3.2-3.5,4.2c-1.3,1-2.5,1.6-3.3,1.8
								c-0.4,0.2-0.8,0.2-1,0.3C186.2,172.4,186.1,172.5,186.1,172.5z"/>
							<path class="st0" d="M179.4,206.6c0,0,0.4-0.4,1.1-1.2c0.6-0.7,1.5-1.8,2.4-3.2c0.9-1.4,1.8-3.1,2.5-4.9
								c0.4-0.9,0.6-1.9,0.9-3c0.1-0.5,0.2-1.1,0.3-1.5c0.1-0.6,0.1-1.1,0.2-1.6c0.2-2.1,0-4.2-0.4-6.2c-0.2-1-0.4-1.9-0.7-2.8
								c-0.3-0.9-0.6-1.7-1-2.4c-0.7-1.5-1.5-2.6-2.1-3.4c-0.6-0.8-1-1.2-1-1.2s0.1,0.1,0.4,0.2c0.2,0.1,0.6,0.3,1,0.6
								c0.4,0.3,0.9,0.7,1.4,1.2c0.5,0.5,1.1,1.1,1.6,1.8c1,1.4,2,3.3,2.6,5.4c0.3,1.1,0.6,2.2,0.7,3.4c0.1,1.2,0.2,2.3,0.1,3.6
								c0,0.6-0.1,1.2-0.2,1.7c-0.1,0.6-0.2,1.2-0.4,1.8c-0.3,1.1-0.7,2.2-1.2,3.2c-0.9,2-2.2,3.7-3.4,5c-1.2,1.3-2.4,2.1-3.2,2.7
								C179.9,206.3,179.4,206.6,179.4,206.6z"/>
							<path class="st0" d="M171,240.2c0,0,0.6-0.2,1.6-0.5c1-0.3,2.4-0.8,4-1.6c1.6-0.8,3.2-1.9,4.6-3.5c0.7-0.8,1.3-1.7,1.8-2.6
								c0.3-0.5,0.4-0.9,0.6-1.5c0.1-0.5,0.3-1,0.3-1.5c0.2-1.1,0.2-2.2,0.1-3.2c-0.1-1.1-0.3-2.2-0.7-3.2c-0.3-1-0.7-2-1.1-2.9
								c-0.4-0.9-0.9-1.7-1.3-2.5c-0.9-1.5-1.8-2.7-2.5-3.5c-0.7-0.8-1.1-1.3-1.1-1.3s0.5,0.3,1.4,0.9c0.9,0.6,2.1,1.6,3.3,3
								c0.6,0.7,1.2,1.5,1.8,2.4c0.6,0.9,1.1,2,1.6,3c0.9,2.2,1.4,4.9,1,7.6c-0.1,0.7-0.3,1.3-0.5,2c-0.2,0.5-0.5,1.3-0.8,1.8
								c-0.6,1.2-1.5,2.2-2.4,3c-1.8,1.7-3.9,2.7-5.7,3.3c-1.8,0.6-3.4,0.7-4.4,0.8C171.7,240.3,171,240.2,171,240.2z"/>
						</g>

						<radialGradient id="SVGID_40_" cx="115.4137" cy="2551.5229" r="12.1125" gradientTransform="matrix(2.0181 0 0 1.545 -62.5937 -3808.6497)" gradientUnits="userSpaceOnUse">
							<stop  offset="0" style="stop-color:#CEDDDC"/>
							<stop  offset="1" style="stop-color:#FDFDFD"/>
						</radialGradient>
						<path class="st41" d="M186,145.3c-0.9-1.6-2.2-3-4.3-4.8c-3.3-2.7-6.3-4.3-9.1-4.7c-0.1,0-0.2,0-0.3,0c-0.3,0-0.7-0.1-1-0.1
							c-2.7,0-5.2,1.2-6.5,3.1c-1.2,1.7-1.4,3.3-1.4,5.3c0,2.7-1.1,5.2-3.1,6.8l0,0c-0.1,0.1-0.4,0.4-0.6,1.1
							c-0.7,1.7-0.9,3.6-0.7,5.5c0.5,3.6,2.8,7,6.3,9.1c2.3,1.4,5.2,2.3,8.2,2.7c0.8,0.1,1.5,0.1,2.3,0.1c2.4,0,4.7-0.4,6.7-1.3
							c1.7-0.7,3.1-1.9,4.1-3.2c1.3-1.9,1.8-4.5,2.1-6.8c0.3-2.6,0.4-4.5,0.2-6.2C188.3,149.7,187.3,147.8,186,145.3z"/>
						<g>
							<linearGradient id="SVGID_41_" gradientUnits="userSpaceOnUse" x1="162.7154" y1="237.7111" x2="162.5879" y2="225.2072">
								<stop  offset="0" style="stop-color:#CEDDDC"/>
								<stop  offset="1" style="stop-color:#FDFDFD"/>
							</linearGradient>
							<path class="st42" d="M165.2,238.7c-1.6,0-3.3-0.1-5.1-0.2c-3.5-0.2-6.9-0.6-9-2.8c-1.5-1.5-2.2-3.7-2.9-5.6
								c-0.5-1.6-1.1-2.6-1.6-3.6c-0.5-1-1-1.9-1.5-3.4c-0.3-1-0.7-4.1-0.7-5.3c0-1.2,0.3-2.4,1-3.9c0.7-1.5,1.4-2.9,2.4-4
								c1.8-1.9,4.7-3,8.7-3.1c0.3,0,0.6,0,0.9,0c6.2,0,12,2,16.1,5.6c4.3,3.8,7,9.4,7.1,15.1c0.1,4.1-2,6.2-4.3,8.1
								c-1.9,1.6-4.5,2.6-7.6,3C167.7,238.6,166.5,238.7,165.2,238.7z"/>

							<radialGradient id="SVGID_42_" cx="108.0283" cy="126.539" r="10.9853" gradientTransform="matrix(2.0181 0 0 2.0181 -62.5937 -52.2432)" gradientUnits="userSpaceOnUse">
								<stop  offset="0" style="stop-color:#CDD2D2"/>
								<stop  offset="1" style="stop-color:#FDFDFD"/>
							</radialGradient>
							<path class="st43" d="M172.2,213.8c-3.8-3.3-9-5.1-14.8-5.1c-0.3,0-0.6,0-0.8,0c-3.4,0.1-5.9,0.9-7.3,2.5
								c-0.8,0.9-1.4,2.1-2,3.4c-0.6,1.2-0.8,2.2-0.8,3.1c0,1.2,0.3,4,0.6,4.7c0.5,1.3,0.9,2.2,1.4,3.2c0.5,1,1.1,2.2,1.7,3.9
								c0.6,1.7,1.3,3.7,2.4,4.8c1.7,1.6,4.6,2,7.7,2.2c1.8,0.1,3.4,0.2,4.9,0.2c1.2,0,2.3-0.1,3.3-0.2c2.7-0.3,5-1.2,6.6-2.6
								c2.1-1.7,3.6-3.2,3.5-6.5C178.5,222.3,176.2,217.2,172.2,213.8z"/>
						</g>

						<radialGradient id="SVGID_43_" cx="108.6413" cy="2686.6121" r="9.7818" gradientTransform="matrix(2.0181 0 0 1.5291 -62.5937 -3935.252)" gradientUnits="userSpaceOnUse">
							<stop  offset="0" style="stop-color:#CEDDDC"/>
							<stop  offset="1" style="stop-color:#FDFDFD"/>
						</radialGradient>
						<path class="st44" d="M174.4,177.1L174.4,177.1c-2-0.9-4.3-1.6-6.6-2.2l-0.8-0.2c-2.6-0.7-5.3-1.5-7.7-1.5
							c-0.4,0-0.8,0-1.2,0.1c-2.6,0.3-5.5,1.6-6.4,3.9c-0.3,0.8,0,2.6,0.2,3.9c0.1,0.7,0.2,1.5,0.3,2.2c0.2,1.9,0.1,3.9,0,5.8
							c-0.1,3.8-0.3,7.3,1.4,9.6c1.2,1.6,4.5,2.5,7.1,3.3c0.8,0.2,1.6,0.5,2.4,0.7c2.4,0.8,5.2,1.3,7.5,1.3c2,0,2.7-0.4,3.9-1.1
							l0.2-0.1c3.3-2.6,5-5.3,5.7-8.5c0.6-3.1,0.6-6.3-0.1-9.4C179.5,181.3,177.4,178.5,174.4,177.1z"/>

						<radialGradient id="SVGID_44_" cx="119.7905" cy="5563.4229" r="9.6792" gradientTransform="matrix(2.0181 0 0 1.1989 -62.5937 -6557.0439)" gradientUnits="userSpaceOnUse">
							<stop  offset="0" style="stop-color:#CEDDDC"/>
							<stop  offset="1" style="stop-color:#FDFDFD"/>
						</radialGradient>
						<path class="st45" d="M194.9,123.8c-0.7-1.6-1.9-3.3-3.4-5c-2.6-2.9-5.3-4.8-8.1-5.8c-1.4-0.5-2.8-0.7-4.2-0.7
							c-1.7,0-3.2,0.4-4.6,1.1c-1.7,0.9-3.1,2.5-3.9,4.2c-0.7,1.8-0.9,3.9-0.3,5.7c0.7,2.3,2.4,4.4,4.8,6c2.1,1.4,4.8,2.4,8.2,3.2
							c1.9,0.4,3.4,0.6,4.8,0.6c1.6,0,2.9-0.2,4-0.7c0.9-0.4,1.6-0.9,2.3-1.6c1.1-1.1,1.5-2.7,1.2-4.3
							C195.5,125.4,195.2,124.6,194.9,123.8z"/>

						<radialGradient id="SVGID_45_" cx="154.5341" cy="48.5319" r="8.2382" gradientTransform="matrix(2.0181 0 0 2.0181 -62.5937 -52.2432)" gradientUnits="userSpaceOnUse">
							<stop  offset="0" style="stop-color:#CEDDDC"/>
							<stop  offset="1" style="stop-color:#FDFDFD"/>
						</radialGradient>
						<path class="st46" d="M255.9,48.1l-0.3,0c-2,0-4,0.2-5.5,0.4c-1.5,0.3-3.1,0.7-4.9,1.3l-0.3,0.1c-1.5,0.5-5.2,1.7-5.9,3.1
							c0,0.1-0.1,0.3,0,0.5c0.5,3.1,2.6,6.4,4.6,9.5l0.2,0.3c1.3,2.1,2.6,4,4.6,5.8c1.5,1.3,3.1,1.9,4.6,1.9l0.2,0
							c0.8,0,1.6-0.2,2.3-0.6c0.6-0.3,2.2-2,3.2-4.3c1.4-3.4,2.9-11.1,3-17.2C260,48.3,258.1,48.1,255.9,48.1z"/>

						<radialGradient id="SVGID_46_" cx="141.6796" cy="1065.3807" r="6.1635" gradientTransform="matrix(2.0181 0 0 1.7915 -62.5937 -1851.9208)" gradientUnits="userSpaceOnUse">
							<stop  offset="0" style="stop-color:#CEDDDC"/>
							<stop  offset="1" style="stop-color:#FDFDFD"/>
						</radialGradient>
						<path class="st47" d="M233.5,55c-1.5,0-3.3,0.3-5.3,0.9c-1.8,0.5-3.5,1.2-4.8,1.8c-1.3,0.7-2.6,1.4-4,2.4l-0.2,0.1
							c-1.2,0.8-4.1,2.8-4.3,4.1c0,0,0,0.2,0.1,0.3c1.2,2.6,3.9,4.9,6.5,7.2l0.2,0.2c1.7,1.5,3.3,2.9,5.6,3.9c1,0.5,2.1,0.7,3,0.7
							c0.5,0,1-0.1,1.5-0.2l0.1,0c0.7-0.2,1.3-0.6,1.8-1.1c0.5-0.4,1.4-2.3,1.6-4.5C235.7,67.5,235.1,60.4,233.5,55L233.5,55z"/>

						<radialGradient id="SVGID_47_" cx="132.2676" cy="59.4161" r="7.5678" gradientTransform="matrix(2.0181 0 0 2.0181 -62.5937 -52.2432)" gradientUnits="userSpaceOnUse">
							<stop  offset="0" style="stop-color:#CEDDDC"/>
							<stop  offset="1" style="stop-color:#FDFDFD"/>
						</radialGradient>
						<path class="st48" d="M213,72.7c-0.5-1.3-1.2-2.7-2.1-3.3c-0.6-0.4-1.3-0.5-2.3-0.5c-0.4,0-0.9,0-1.4,0.1
							c-3.7,0.5-7.3,2.7-9.2,5.6c-1,1.6-2,4.1-1.1,7.2c0.7,2.5,2.6,4.7,5,6c2.5,1.3,5.2,2.3,7.9,3c0.9,0.2,2.1,0.5,3.3,0.5
							c0.2,0,0.4,0,0.6,0c1-0.1,1.9-0.5,2.3-1c0.9-1.1,0.7-3.2,0.5-4.7C215.8,81.1,214.7,76.8,213,72.7z"/>

						<radialGradient id="SVGID_48_" cx="125.2455" cy="4192.8584" r="7.5113" gradientTransform="matrix(2.0181 0 0 1.3325 -62.5937 -5496.1479)" gradientUnits="userSpaceOnUse">
							<stop  offset="0" style="stop-color:#CEDDDC"/>
							<stop  offset="1" style="stop-color:#FDFDFD"/>
						</radialGradient>
						<path class="st49" d="M193.3,91.4c-0.7-0.1-1.4-0.2-2-0.2c-2.7,0-5.3,1.1-6.9,2.9c-1.2,1.4-1.9,3.1-2,4.9
							c-0.1,1.8,0.4,3.6,1.5,5c1.2,1.7,3.1,2.9,4.9,4c1.6,1,3.7,2.2,5.9,2.8c1,0.3,2,0.4,3,0.4c0.9,0,1.8-0.1,2.5-0.4
							c0.1,0,0.2-0.1,0.3-0.1c1.6-0.7,2.7-2.3,2.8-4.2c0.1-3.3-0.6-6.4-2-8.9C199.5,94.4,196.5,92.1,193.3,91.4z"/>
					</g>
					<g>

							<linearGradient id="SVGID_49_" gradientUnits="userSpaceOnUse" x1="-2739.9868" y1="76.2711" x2="-2745.6008" y2="46.6698" gradientTransform="matrix(-1 0 0 1 -2465.9268 0)">
							<stop  offset="0" style="stop-color:#CEDDDC"/>
								<stop  offset="5.772644e-02" style="stop-color:#D5E1E1"/>
								<stop  offset="0.234" style="stop-color:#E7EEEE"/>
								<stop  offset="0.4299" style="stop-color:#F3F6F7"/>
								<stop  offset="0.6587" style="stop-color:#FBFBFC"/>
								<stop  offset="1" style="stop-color:#FDFDFD"/>
						</linearGradient>
						<path class="st50" d="M276.1,72.9c2.1,0,4.1-0.8,6-2.4c2.3-2,3.7-4.1,5-6.2l0.2-0.3c2.1-3.3,4.3-6.8,4.9-10.3
							c0.1-0.4,0.1-1.1-0.2-1.7c-1.1-2.1-4.8-3.3-7.1-4.1l-0.3-0.1c-1.9-0.6-3.6-1.1-5.2-1.4c-1.6-0.2-3.7-0.4-5.8-0.4
							c-2.6,0-4.8,0.3-6.7,0.8c-0.3,0.1-1.1,0.4-1.3,1c-0.1,0.3-0.1,0.6-0.1,1c0.1,6.5,1.7,14.3,3.2,17.9c1,2.5,2.9,4.7,4.1,5.3
							c1,0.5,2,0.8,3.2,0.8C276,72.9,276.1,72.9,276.1,72.9z"/>

						<linearGradient id="SVGID_50_" gradientUnits="userSpaceOnUse" x1="-2769.967" y1="79.4482" x2="-2769.8394" y2="58.7784" gradientTransform="matrix(-1 0 0 1 -2465.9268 0)">
							<stop  offset="0" style="stop-color:#CEDDDC"/>
							<stop  offset="1" style="stop-color:#FDFDFD"/>
						</linearGradient>
						<path class="st51" d="M296.8,78.4c1.8,0.6,3.9,0.3,5.9-0.6c2.6-1.2,4.3-2.7,6.1-4.2l0.2-0.2c2.7-2.4,5.6-4.9,7-7.9
							c0.2-0.4,0.4-1,0.2-1.6c-0.4-2.1-3.4-4.2-5.2-5.4l-0.2-0.1c-1.5-1-2.9-1.9-4.3-2.6c-1.4-0.6-3.1-1.3-5-1.9
							c-2.3-0.7-4.4-1-6.2-1c-0.3,0-1.1,0.1-1.4,0.5c-0.2,0.2-0.2,0.5-0.3,0.9c-1.6,5.8-2.2,13.1-1.9,16.7c0.3,2.5,1.3,4.9,2.3,5.8
							c0.7,0.7,1.6,1.2,2.6,1.5C296.7,78.4,296.7,78.4,296.8,78.4z"/>

						<linearGradient id="SVGID_51_" gradientUnits="userSpaceOnUse" x1="-2789.5945" y1="93.6413" x2="-2787.1702" y2="70.2921" gradientTransform="matrix(-1 0 0 1 -2465.9268 0)">
							<stop  offset="0" style="stop-color:#CEDDDC"/>
							<stop  offset="1" style="stop-color:#FDFDFD"/>
						</linearGradient>
						<path class="st52" d="M316.2,93.3c1.4,0,2.7-0.3,3.8-0.6c2.9-0.7,5.7-1.8,8.3-3.2c2.9-1.5,5.1-4.1,6-7.2
							c2.3-7.8-4.8-14.4-12-15.4c-1.7-0.2-3.5-0.2-5,0.7c-1.4,0.9-2.3,2.6-3,4.3c-1.8,4.3-3,8.7-3.6,13.3c-0.3,2.1-0.4,4.6,1,6.3
							c0.8,1,2.1,1.6,3.7,1.8C315.6,93.3,315.9,93.3,316.2,93.3z"/>

						<linearGradient id="SVGID_52_" gradientUnits="userSpaceOnUse" x1="-2802.0742" y1="113.831" x2="-2802.3293" y2="91.5026" gradientTransform="matrix(-1 0 0 1 -2465.9268 0)">
							<stop  offset="0" style="stop-color:#CEDDDC"/>
							<stop  offset="1" style="stop-color:#FDFDFD"/>
						</linearGradient>
						<path class="st53" d="M331.4,113.3c1.1,0,2.3-0.2,3.5-0.5c2.4-0.7,4.7-2,6.5-3c2-1.2,4.1-2.6,5.5-4.6c1.3-1.8,2-4.1,1.9-6.3
							c-0.1-2.2-1-4.4-2.5-6.1c-2-2.3-5.1-3.6-8.4-3.6c-0.8,0-1.7,0.1-2.5,0.3c-3.8,0.8-7.3,3.5-9.3,7.2c-1.6,2.9-2.4,6.3-2.3,9.9
							c0.1,2.7,1.6,5,4,6c0.1,0.1,0.3,0.1,0.4,0.2C329.2,113.1,330.3,113.3,331.4,113.3z"/>

						<linearGradient id="SVGID_53_" gradientUnits="userSpaceOnUse" x1="-2811.8628" y1="134.79" x2="-2812.6279" y2="109.6666" gradientTransform="matrix(-1 0 0 1 -2465.9268 0)">
							<stop  offset="0" style="stop-color:#CEDDDC"/>
							<stop  offset="1" style="stop-color:#FDFDFD"/>
						</linearGradient>
						<path class="st54" d="M341,135c1.5,0,3.3-0.2,5.3-0.7c3.7-0.8,6.5-1.9,8.8-3.5c2.8-1.8,4.8-4.4,5.6-7.1
							c0.7-2.3,0.6-4.9-0.4-7.1c-0.9-2.2-2.7-4.1-4.8-5.3c-1.6-0.9-3.5-1.3-5.5-1.3c-1.6,0-3.3,0.3-4.9,0.9
							c-3.1,1.1-6.1,3.3-8.9,6.4c-1.7,1.9-3,3.7-3.8,5.6c-0.4,1-0.7,2-0.9,3c-0.5,2.3,0.2,4.6,1.8,6.2c0.9,0.9,1.8,1.5,2.9,2
							C337.6,134.7,339.2,135,341,135z"/>

						<linearGradient id="SVGID_54_" gradientUnits="userSpaceOnUse" x1="-2821.8337" y1="170.4404" x2="-2820.9407" y2="141.4772" gradientTransform="matrix(-1 0 0 1 -2465.9268 0)">
							<stop  offset="0" style="stop-color:#CEDDDC"/>
							<stop  offset="1" style="stop-color:#FDFDFD"/>
						</linearGradient>
						<path class="st55" d="M356.1,171.4c3.3-0.4,6.5-1.4,9-2.9c4-2.4,6.7-6.4,7.2-10.6c0.3-2.2,0-4.5-0.8-6.5
							c-0.3-0.9-0.7-1.5-1.1-1.9l-0.1-0.1c-1.5-1.3-2.4-3.2-2.4-5.3c0-2-0.2-4.2-1.8-6.5c-1.9-2.8-5.6-4.3-9.5-3.9
							c-0.1,0-0.2,0-0.4,0c-3.2,0.5-6.5,2.1-10.1,5.1c-2.3,1.9-3.8,3.6-4.8,5.4c-1.4,2.6-2.5,4.7-2.8,7.4c-0.2,1.9-0.1,4,0.2,6.7
							c0.3,2.5,0.9,5.4,2.5,7.7c1.1,1.7,2.9,3.1,4.9,3.9C349,171.3,352.5,171.8,356.1,171.4z"/>

						<linearGradient id="SVGID_55_" gradientUnits="userSpaceOnUse" x1="-2832.3711" y1="237.7111" x2="-2832.4988" y2="225.2072" gradientTransform="matrix(-1 0 0 1 -2465.9268 0)">
							<stop  offset="0" style="stop-color:#CEDDDC"/>
							<stop  offset="1" style="stop-color:#FDFDFD"/>
						</linearGradient>
						<path class="st56" d="M364,238.7c1.6,0,3.3-0.1,5.1-0.2c3.5-0.2,6.9-0.6,9-2.8c1.5-1.5,2.2-3.7,2.9-5.6
							c0.5-1.6,1.1-2.6,1.6-3.6c0.5-1,1-1.9,1.5-3.4c0.3-1,0.7-4.1,0.7-5.3c0-1.2-0.3-2.4-1-3.9c-0.7-1.5-1.4-2.9-2.4-4
							c-1.8-1.9-4.7-3-8.7-3.1c-0.3,0-0.6,0-0.9,0c-6.2,0-12,2-16.1,5.6c-4.3,3.8-7,9.4-7.1,15.1c-0.1,4.1,2,6.2,4.3,8.1
							c1.9,1.6,4.5,2.6,7.6,3C361.5,238.6,362.7,238.7,364,238.7z"/>

						<linearGradient id="SVGID_56_" gradientUnits="userSpaceOnUse" x1="-2830.3335" y1="205.0644" x2="-2828.0366" y2="171.5079" gradientTransform="matrix(-1 0 0 1 -2465.9268 0)">
							<stop  offset="0" style="stop-color:#CEDDDC"/>
							<stop  offset="1" style="stop-color:#FDFDFD"/>
						</linearGradient>
						<path class="st57" d="M353.3,204.4c-3.2-2.6-5.7-5.6-6.5-9.9c-0.7-3.6-0.6-7.1,0.1-10.2c0.9-4,3.4-7.4,7-9.1c0,0,0,0,0.1,0
							c2.1-1,4.4-1.7,6.8-2.3l0.8-0.2c2.7-0.8,5.6-1.6,8.3-1.6c0.5,0,1,0,1.4,0.1c3,0.3,6.8,1.9,8.1,5.2c0.5,1.3,0.2,3.2-0.1,5
							c-0.1,0.7-0.2,1.4-0.3,2c-0.2,1.8-0.1,3.7,0,5.6c0.2,4.1,0.3,8-1.8,10.9c-1.6,2.1-5.1,3.1-8.2,4c-0.8,0.2-1.6,0.5-2.4,0.7
							c-2.4,0.8-5.4,1.4-8.1,1.4C355.8,205.9,354.8,205.2,353.3,204.4z"/>
						<g>
							<path class="st0" d="M283.5,74.3c0,0-0.2,0.3-0.6,0.8c-0.4,0.5-1,1.2-2,1.8c-0.9,0.6-2.1,1.2-3.6,1.5
								c-0.7,0.1-1.5,0.2-2.2,0.2c-0.8,0-1.5-0.1-2.3-0.3c-0.8-0.2-1.5-0.5-2.2-0.8c-0.7-0.3-1.4-0.9-1.9-1.4c-1-1-1.7-2.1-2.2-3.1
								c-0.5-1-0.7-1.9-0.9-2.5c-0.1-0.6-0.2-1-0.2-1s0.9,1.2,2.3,2.7c0.7,0.7,1.5,1.6,2.5,2.3c0.5,0.4,0.9,0.6,1.5,0.9
								c0.5,0.3,1.1,0.4,1.7,0.6c0.6,0.2,1.2,0.3,1.8,0.3c0.7,0,1.2,0.1,1.8,0c1.2-0.1,2.3-0.3,3.2-0.6c0.9-0.3,1.8-0.6,2.3-0.9
								C283.1,74.4,283.5,74.3,283.5,74.3z"/>
							<path class="st0" d="M302.9,81.9c0,0-0.2,0.3-0.7,0.6c-0.5,0.4-1.2,0.8-2.3,1.2c-1,0.3-2.3,0.5-3.6,0.4
								c-1.4-0.1-2.8-0.6-4.1-1.3c-0.3-0.2-0.6-0.4-0.9-0.6c-0.3-0.2-0.6-0.5-0.8-0.7c-0.5-0.5-0.9-1.1-1.3-1.7
								c-0.7-1.2-1.1-2.4-1.3-3.4c-0.2-1-0.2-1.9-0.1-2.5c0.1-0.6,0.1-0.9,0.1-0.9s0.1,0.3,0.4,0.9c0.2,0.5,0.6,1.3,1,2.1
								c0.4,0.8,1,1.7,1.7,2.6c0.4,0.4,0.8,0.8,1.2,1.2c0.5,0.4,0.8,0.7,1.4,1c1.9,1.2,4.3,1.7,6.2,1.6c0.9,0,1.7-0.1,2.3-0.2
								C302.6,82,302.9,81.9,302.9,81.9z"/>
							<path class="st0" d="M319.3,96.8c0,0-0.3,0.2-0.8,0.5c-0.5,0.3-1.3,0.6-2.3,0.9c-1,0.3-2.3,0.4-3.6,0.2
								c-0.7-0.1-1.4-0.2-2.1-0.5c-0.7-0.3-1.3-0.7-2-1.1c-0.6-0.5-1.1-1-1.6-1.7c-0.1-0.2-0.2-0.3-0.3-0.5l-0.2-0.4
								c-0.2-0.4-0.3-0.7-0.4-1c-0.5-1.4-0.5-2.7-0.3-3.7c0.2-1,0.5-1.8,0.7-2.4c0.2-0.5,0.4-0.8,0.4-0.8s0,0.3,0.1,0.9
								c0,0.6,0.1,1.4,0.2,2.3c0.1,0.9,0.4,1.9,0.9,2.8c0.1,0.2,0.3,0.5,0.4,0.7l0.3,0.4l0.2,0.3c0.3,0.4,0.7,0.8,1.2,1.1
								c0.9,0.7,1.9,1.2,2.9,1.5c1,0.3,2.1,0.4,3.1,0.5c0.9,0.1,1.8,0.1,2.4,0.1C319,96.8,319.3,96.8,319.3,96.8z"/>
							<path class="st0" d="M329.8,116.9c0,0-0.1,0-0.3,0.1c-0.2,0-0.4,0.2-0.8,0.2c-0.7,0.1-1.7,0.2-2.9-0.1
								c-1.2-0.2-2.6-0.8-3.8-1.7c-1.3-0.9-2.4-2.3-3.1-3.9c-0.3-0.8-0.5-1.6-0.7-2.5c-0.1-0.8-0.1-1.6-0.1-2.4c0.1-1.5,0.5-2.9,1-4
								c0.4-1.1,0.9-1.9,1.3-2.5c0.4-0.6,0.6-0.9,0.6-0.9s-0.2,1.5-0.5,3.8c-0.1,1.1-0.2,2.4-0.1,3.7c0,0.6,0.1,1.3,0.2,1.9
								c0.1,0.6,0.3,1.3,0.6,1.9c0.3,0.6,0.6,1.2,0.9,1.7c0.4,0.5,0.8,1,1.2,1.5c0.9,0.9,1.9,1.6,2.9,2.1c0.9,0.5,1.8,0.8,2.4,0.9
								C329.4,116.9,329.8,116.9,329.8,116.9z"/>
							<path class="st0" d="M339.2,138.3c0,0-0.4,0.1-1,0.2c-0.7,0.1-1.6,0.2-2.8,0.1c-1.2-0.1-2.6-0.5-4-1.2
								c-0.7-0.4-1.4-0.8-2-1.3c-0.3-0.3-0.6-0.5-0.9-0.8c-0.2-0.2-0.6-0.6-0.8-0.9c-1-1.4-1.7-3-1.8-4.5c-0.2-1.6,0-3,0.4-4.2
								c0.4-1.1,0.9-2,1.2-2.6c0.4-0.6,0.6-0.9,0.6-0.9s-0.1,0.4-0.2,1c-0.1,0.7-0.2,1.6-0.3,2.7c0,1.1,0,2.3,0.4,3.5
								c0.3,1.2,0.9,2.4,1.7,3.4c0.2,0.2,0.4,0.5,0.6,0.8c0.2,0.2,0.5,0.5,0.7,0.7c0.5,0.4,1,0.9,1.5,1.2c1,0.7,2.2,1.3,3.1,1.7
								c1,0.4,1.9,0.7,2.5,0.8C338.9,138.2,339.2,138.3,339.2,138.3z"/>
							<path class="st0" d="M343.1,172.5c0,0-0.1,0-0.4-0.1c-0.2-0.1-0.6-0.1-1-0.3c-0.9-0.3-2.1-0.8-3.3-1.8
								c-1.3-1-2.6-2.4-3.5-4.2c-0.5-0.9-1-1.8-1.3-2.8c-0.3-1-0.6-2.1-0.8-3.1c-0.4-2.1-0.4-4.3-0.1-6.3c0.3-2,0.9-3.8,1.5-5.2
								c0.7-1.4,1.4-2.5,1.9-3.2c0.5-0.7,0.9-1.1,0.9-1.1s-0.2,0.5-0.4,1.3c-0.3,0.8-0.6,2-1,3.5c-0.3,1.4-0.6,3.1-0.7,4.9
								c-0.1,0.9,0,1.8,0,2.8c0,0.9,0.2,1.9,0.3,2.8c0.2,1,0.4,1.9,0.6,2.8c0.3,0.9,0.6,1.8,1,2.6c0.7,1.6,1.6,3,2.6,4.1
								c0.9,1.1,1.9,1.9,2.6,2.5C342.6,172.2,343.1,172.5,343.1,172.5z"/>
							<path class="st0" d="M349.8,206.6c0,0-0.5-0.2-1.4-0.8c-0.9-0.5-2-1.4-3.2-2.7c-1.2-1.3-2.4-3-3.4-5c-0.5-1-0.9-2.1-1.2-3.2
								c-0.2-0.6-0.3-1.1-0.4-1.8c-0.1-0.6-0.2-1.1-0.2-1.7c-0.1-1.2,0-2.4,0.1-3.6c0.1-1.2,0.4-2.3,0.7-3.4c0.6-2.1,1.6-4,2.6-5.4
								c0.5-0.7,1.1-1.3,1.6-1.8c0.5-0.5,1-0.9,1.4-1.2c0.4-0.3,0.8-0.5,1-0.6c0.2-0.1,0.4-0.2,0.4-0.2s-0.4,0.4-1,1.2
								c-0.6,0.8-1.4,1.9-2.1,3.4c-0.4,0.7-0.7,1.6-1,2.4c-0.3,0.9-0.5,1.8-0.7,2.8c-0.4,2-0.6,4.1-0.4,6.2c0,0.5,0.1,1.1,0.2,1.6
								c0.1,0.5,0.2,1,0.3,1.5c0.2,1,0.5,2,0.9,3c0.7,1.9,1.6,3.6,2.5,4.9c0.9,1.4,1.8,2.5,2.4,3.2
								C349.4,206.2,349.8,206.6,349.8,206.6z"/>
							<path class="st0" d="M358.1,240.2c0,0-0.6,0-1.7,0c-1.1-0.1-2.6-0.2-4.4-0.8c-1.8-0.5-3.9-1.6-5.7-3.3
								c-0.9-0.9-1.7-1.8-2.4-3c-0.3-0.5-0.6-1.3-0.8-1.8c-0.2-0.7-0.4-1.3-0.5-2c-0.4-2.7,0.1-5.3,1-7.6c0.4-1.1,1-2.1,1.6-3
								c0.6-0.9,1.2-1.7,1.8-2.4c1.2-1.4,2.4-2.4,3.3-3c0.9-0.6,1.4-0.9,1.4-0.9s-0.4,0.5-1.1,1.3c-0.7,0.8-1.6,2-2.5,3.5
								c-0.4,0.8-0.9,1.6-1.3,2.5c-0.4,0.9-0.8,1.9-1.1,2.9c-0.3,1-0.5,2.1-0.7,3.2c-0.1,1.1-0.1,2.2,0.1,3.2
								c0.1,0.5,0.2,1.1,0.3,1.5c0.2,0.6,0.4,1,0.6,1.5c0.5,0.9,1.1,1.8,1.8,2.6c1.4,1.5,3.1,2.7,4.6,3.5c1.6,0.8,3,1.3,4,1.6
								C357.5,240.1,358.1,240.2,358.1,240.2z"/>
						</g>

						<radialGradient id="SVGID_57_" cx="-2674.7544" cy="2551.5229" r="12.1125" gradientTransform="matrix(-2.0181 0 0 1.545 -5039.0469 -3808.6497)" gradientUnits="userSpaceOnUse">
							<stop  offset="0" style="stop-color:#CEDDDC"/>
							<stop  offset="1" style="stop-color:#FDFDFD"/>
						</radialGradient>
						<path class="st58" d="M343.2,145.3c0.9-1.6,2.2-3,4.3-4.8c3.3-2.7,6.3-4.3,9.1-4.7c0.1,0,0.2,0,0.3,0c0.3,0,0.7-0.1,1-0.1
							c2.7,0,5.2,1.2,6.5,3.1c1.2,1.7,1.4,3.3,1.4,5.3c0,2.7,1.1,5.2,3.1,6.8l0,0c0.1,0.1,0.4,0.4,0.6,1.1c0.7,1.7,0.9,3.6,0.7,5.5
							c-0.5,3.6-2.8,7-6.3,9.1c-2.3,1.4-5.2,2.3-8.2,2.7c-0.8,0.1-1.5,0.1-2.3,0.1c-2.4,0-4.7-0.4-6.7-1.3c-1.7-0.7-3.1-1.9-4.1-3.2
							c-1.3-1.9-1.8-4.5-2.1-6.8c-0.3-2.6-0.4-4.5-0.2-6.2C340.8,149.7,341.8,147.8,343.2,145.3z"/>

						<radialGradient id="SVGID_58_" cx="-2682.1399" cy="126.539" r="10.9853" gradientTransform="matrix(-2.0181 0 0 2.0181 -5039.0469 -52.2432)" gradientUnits="userSpaceOnUse">
							<stop  offset="0" style="stop-color:#CDD2D2"/>
							<stop  offset="1" style="stop-color:#FDFDFD"/>
						</radialGradient>
						<path class="st59" d="M356.9,213.8c3.8-3.3,9-5.1,14.8-5.1c0.3,0,0.6,0,0.8,0c3.4,0.1,5.9,0.9,7.3,2.5c0.8,0.9,1.4,2.1,2,3.4
							c0.6,1.2,0.8,2.2,0.8,3.1c0,1.2-0.3,4-0.6,4.7c-0.5,1.3-0.9,2.2-1.4,3.2c-0.5,1-1.1,2.2-1.7,3.9c-0.6,1.7-1.3,3.7-2.4,4.8
							c-1.7,1.6-4.6,2-7.7,2.2c-1.8,0.1-3.4,0.2-4.9,0.2c-1.2,0-2.3-0.1-3.3-0.2c-2.7-0.3-5-1.2-6.6-2.6c-2.1-1.7-3.6-3.2-3.5-6.5
							C350.6,222.3,353,217.2,356.9,213.8z"/>

						<radialGradient id="SVGID_59_" cx="-2681.5269" cy="2686.6121" r="9.7818" gradientTransform="matrix(-2.0181 0 0 1.5291 -5039.0469 -3935.252)" gradientUnits="userSpaceOnUse">
							<stop  offset="0" style="stop-color:#CEDDDC"/>
							<stop  offset="1" style="stop-color:#FDFDFD"/>
						</radialGradient>
						<path class="st60" d="M354.7,177.1L354.7,177.1c2-0.9,4.3-1.6,6.6-2.2l0.8-0.2c2.6-0.7,5.3-1.5,7.7-1.5c0.4,0,0.8,0,1.2,0.1
							c2.6,0.3,5.5,1.6,6.4,3.9c0.3,0.8,0,2.6-0.2,3.9c-0.1,0.7-0.2,1.5-0.3,2.2c-0.2,1.9-0.1,3.9,0,5.8c0.1,3.8,0.3,7.3-1.4,9.6
							c-1.2,1.6-4.5,2.5-7.1,3.3c-0.8,0.2-1.6,0.5-2.4,0.7c-2.4,0.8-5.2,1.3-7.5,1.3c-2,0-2.7-0.4-3.9-1.1l-0.2-0.1
							c-3.3-2.6-5-5.3-5.7-8.5c-0.6-3.1-0.6-6.3,0.1-9.4C349.6,181.3,351.8,178.5,354.7,177.1z"/>

						<radialGradient id="SVGID_60_" cx="-2670.3777" cy="5563.4229" r="9.6792" gradientTransform="matrix(-2.0181 0 0 1.1989 -5039.0469 -6557.0439)" gradientUnits="userSpaceOnUse">
							<stop  offset="0" style="stop-color:#CEDDDC"/>
							<stop  offset="1" style="stop-color:#FDFDFD"/>
						</radialGradient>
						<path class="st61" d="M334.3,123.8c0.7-1.6,1.9-3.3,3.4-5c2.6-2.9,5.3-4.8,8.1-5.8c1.4-0.5,2.8-0.7,4.2-0.7
							c1.7,0,3.2,0.4,4.6,1.1c1.7,0.9,3.1,2.5,3.9,4.2c0.7,1.8,0.9,3.9,0.3,5.7c-0.7,2.3-2.4,4.4-4.8,6c-2.1,1.4-4.8,2.4-8.2,3.2
							c-1.9,0.4-3.4,0.6-4.8,0.6c-1.6,0-2.9-0.2-4-0.7c-0.9-0.4-1.6-0.9-2.3-1.6c-1.1-1.1-1.5-2.7-1.2-4.3
							C333.7,125.4,333.9,124.6,334.3,123.8z"/>

						<radialGradient id="SVGID_61_" cx="-2635.634" cy="48.5319" r="8.2382" gradientTransform="matrix(-2.0181 0 0 2.0181 -5039.0469 -52.2432)" gradientUnits="userSpaceOnUse">
							<stop  offset="0" style="stop-color:#CEDDDC"/>
							<stop  offset="1" style="stop-color:#FDFDFD"/>
						</radialGradient>
						<path class="st62" d="M273.3,48.1l0.3,0c2,0,4,0.2,5.5,0.4c1.5,0.3,3.1,0.7,4.9,1.3l0.3,0.1c1.5,0.5,5.2,1.7,5.9,3.1
							c0,0.1,0.1,0.3,0,0.5c-0.5,3.1-2.6,6.4-4.6,9.5l-0.2,0.3c-1.3,2.1-2.6,4-4.6,5.8c-1.5,1.3-3.1,1.9-4.6,1.9l-0.2,0
							c-0.8,0-1.6-0.2-2.3-0.6c-0.6-0.3-2.2-2-3.2-4.3c-1.4-3.4-2.9-11.1-3-17.2C269.1,48.3,271,48.1,273.3,48.1z"/>

						<radialGradient id="SVGID_62_" cx="-2648.4885" cy="1065.3807" r="6.1635" gradientTransform="matrix(-2.0181 0 0 1.7915 -5039.0469 -1851.9208)" gradientUnits="userSpaceOnUse">
							<stop  offset="0" style="stop-color:#CEDDDC"/>
							<stop  offset="1" style="stop-color:#FDFDFD"/>
						</radialGradient>
						<path class="st63" d="M295.6,55c1.5,0,3.3,0.3,5.3,0.9c1.8,0.5,3.5,1.2,4.8,1.8c1.3,0.7,2.6,1.4,4,2.4l0.2,0.1
							c1.2,0.8,4.1,2.8,4.3,4.1c0,0,0,0.2-0.1,0.3c-1.2,2.6-3.9,4.9-6.5,7.2l-0.2,0.2c-1.7,1.5-3.3,2.9-5.6,3.9
							c-1,0.5-2.1,0.7-3,0.7c-0.5,0-1-0.1-1.5-0.2l-0.1,0c-0.7-0.2-1.3-0.6-1.8-1.1c-0.5-0.4-1.4-2.3-1.6-4.5
							C293.5,67.5,294.1,60.4,295.6,55L295.6,55z"/>

						<radialGradient id="SVGID_63_" cx="-2657.9006" cy="59.4161" r="7.5678" gradientTransform="matrix(-2.0181 0 0 2.0181 -5039.0469 -52.2432)" gradientUnits="userSpaceOnUse">
							<stop  offset="0" style="stop-color:#CEDDDC"/>
							<stop  offset="1" style="stop-color:#FDFDFD"/>
						</radialGradient>
						<path class="st64" d="M316.2,72.7c0.5-1.3,1.2-2.7,2.1-3.3c0.6-0.4,1.3-0.5,2.3-0.5c0.4,0,0.9,0,1.4,0.1
							c3.7,0.5,7.3,2.7,9.2,5.6c1,1.6,2,4.1,1.1,7.2c-0.7,2.5-2.6,4.7-5,6c-2.5,1.3-5.2,2.3-7.9,3c-0.9,0.2-2.1,0.5-3.3,0.5
							c-0.2,0-0.4,0-0.6,0c-1-0.1-1.9-0.5-2.3-1c-0.9-1.1-0.7-3.2-0.5-4.7C313.3,81.1,314.5,76.8,316.2,72.7z"/>

						<radialGradient id="SVGID_64_" cx="-2664.9226" cy="4192.8584" r="7.5113" gradientTransform="matrix(-2.0181 0 0 1.3325 -5039.0469 -5496.1479)" gradientUnits="userSpaceOnUse">
							<stop  offset="0" style="stop-color:#CEDDDC"/>
							<stop  offset="1" style="stop-color:#FDFDFD"/>
						</radialGradient>
						<path class="st65" d="M335.9,91.4c0.7-0.1,1.4-0.2,2-0.2c2.7,0,5.3,1.1,6.9,2.9c1.2,1.4,1.9,3.1,2,4.9c0.1,1.8-0.4,3.6-1.5,5
							c-1.2,1.7-3.1,2.9-4.9,4c-1.6,1-3.7,2.2-5.9,2.8c-1,0.3-2,0.4-3,0.4c-0.9,0-1.8-0.1-2.5-0.4c-0.1,0-0.2-0.1-0.3-0.1
							c-1.6-0.7-2.7-2.3-2.8-4.2c-0.1-3.3,0.6-6.4,2-8.9C329.6,94.4,332.6,92.1,335.9,91.4z"/>
					</g>
				</g>
				<path class="st66" d="M264.6,136.2c-32.1,0-58,36.6-58,81.9c0,5.7,0.4,11.2,1.2,16.5c5.4-2,10.6-4.5,15.7-7.3
					c10.4-5.7,25-9.2,41.2-9.2c16.2,0,30.8,3.5,41.2,9.2c5.1,2.8,10.3,5.2,15.7,7.3c0.8-5.3,1.2-10.8,1.2-16.5
					C322.6,172.8,296.6,136.2,264.6,136.2z"/>
			</g>
		</g>
	</g>
</g>
</svg>
